f0ntuni-a.ufo
<glyph name="quotedbl" format="1">
  <advance width="420"/>
  <unicode hex="0022"/>
  <outline>
    <contour>
      <point x="250" y="800" type="line"/>
      <point x="350" y="800" type="line"/>
      <point x="330" y="560" type="line"/>
      <point x="270" y="560" type="line"/>
    </contour>
    <contour>
      <point x="70" y="800" type="line"/>
      <point x="170" y="800" type="line"/>
      <point x="150" y="560" type="line"/>
      <point x="90" y="560" type="line"/>
    </contour>
  </outline>
</glyph>
<glyph name="dollar" format="1">
  <advance width="660"/>
  <unicode hex="0024"/>
  <outline>
    <contour>
      <point x="290" y="920" type="line"/>
      <point x="360" y="920" type="line"/>
      <point x="360" y="818" type="line"/>
      <point x="501" y="801"/>
      <point x="570" y="686"/>
      <point x="570" y="590" type="curve"/>
      <point x="470" y="590" type="line"/>
      <point x="470" y="654"/>
      <point x="427" y="711"/>
      <point x="360" y="726" type="curve"/>
      <point x="360" y="461" type="line"/>
      <point x="489" y="427"/>
      <point x="590" y="369"/>
      <point x="590" y="220" type="curve" smooth="yes"/>
      <point x="590" y="88"/>
      <point x="496" y="-7"/>
      <point x="360" y="-19" type="curve"/>
      <point x="360" y="-120" type="line"/>
      <point x="290" y="-120" type="line"/>
      <point x="290" y="-17" type="line"/>
      <point x="159" y="-0"/>
      <point x="70" y="103"/>
      <point x="70" y="250" type="curve"/>
      <point x="170" y="250" type="line"/>
      <point x="170" y="161"/>
      <point x="208" y="91"/>
      <point x="290" y="74" type="curve"/>
      <point x="290" y="380" type="line"/>
      <point x="181" y="414"/>
      <point x="80" y="477"/>
      <point x="80" y="600" type="curve" smooth="yes"/>
      <point x="80" y="696"/>
      <point x="149" y="803"/>
      <point x="290" y="818" type="curve"/>
    </contour>
    <contour>
      <point x="290" y="480" type="curve"/>
      <point x="290" y="727" type="line"/>
      <point x="224" y="714"/>
      <point x="185" y="664"/>
      <point x="185" y="600" type="curve" smooth="yes"/>
      <point x="185" y="543"/>
      <point x="223" y="503"/>
    </contour>
    <contour>
      <point x="360" y="360" type="curve"/>
      <point x="360" y="72" type="line"/>
      <point x="448" y="83"/>
      <point x="485" y="145"/>
      <point x="485" y="220" type="curve" smooth="yes"/>
      <point x="485" y="294"/>
      <point x="445" y="333"/>
    </contour>
  </outline>
</glyph>
<glyph name="ampersand" format="1">
  <advance width="800"/>
  <unicode hex="0026"/>
  <outline>
    <contour>
      <point x="339" y="380" type="line"/>
      <point x="241" y="332"/>
      <point x="180" y="289"/>
      <point x="180" y="210" type="curve" smooth="yes"/>
      <point x="180" y="135"/>
      <point x="247" y="70"/>
      <point x="350" y="70" type="curve" smooth="yes"/>
      <point x="424" y="70"/>
      <point x="482" y="99"/>
      <point x="522" y="149" type="curve"/>
    </contour>
    <contour>
      <point x="380" y="730" type="curve" smooth="yes"/>
      <point x="316" y="730"/>
      <point x="280" y="688"/>
      <point x="280" y="630" type="curve" smooth="yes"/>
      <point x="280" y="563"/>
      <point x="331" y="518"/>
      <point x="365" y="492" type="curve"/>
      <point x="427" y="524"/>
      <point x="470" y="566"/>
      <point x="470" y="630" type="curve" smooth="yes"/>
      <point x="470" y="688"/>
      <point x="435" y="730"/>
    </contour>
    <contour>
      <point x="380" y="820" type="curve" smooth="yes"/>
      <point x="492" y="820"/>
      <point x="570" y="735"/>
      <point x="570" y="630" type="curve" smooth="yes"/>
      <point x="570" y="532"/>
      <point x="505" y="470"/>
      <point x="426" y="424" type="curve"/>
      <point x="570" y="241" type="line"/>
      <point x="583" y="282"/>
      <point x="590" y="329"/>
      <point x="590" y="380" type="curve"/>
      <point x="690" y="380" type="line"/>
      <point x="690" y="298"/>
      <point x="670" y="222"/>
      <point x="636" y="158" type="curve"/>
      <point x="760" y="0" type="line"/>
      <point x="640" y="0" type="line"/>
      <point x="578" y="79" type="line"/>
      <point x="519" y="17"/>
      <point x="440" y="-20"/>
      <point x="350" y="-20" type="curve" smooth="yes"/>
      <point x="188" y="-20"/>
      <point x="80" y="78"/>
      <point x="80" y="210" type="curve" smooth="yes"/>
      <point x="80" y="331"/>
      <point x="174" y="399"/>
      <point x="278" y="451" type="curve"/>
      <point x="243" y="484"/>
      <point x="180" y="547"/>
      <point x="180" y="630" type="curve" smooth="yes"/>
      <point x="180" y="735"/>
      <point x="268" y="820"/>
    </contour>
  </outline>
</glyph>
<glyph name="parenleft" format="1">
  <advance width="390"/>
  <unicode hex="0028"/>
  <outline>
    <contour>
      <point x="90" y="360" type="line"/>
      <point x="90" y="380" type="line" smooth="yes"/>
      <point x="90" y="602"/>
      <point x="160" y="768"/>
      <point x="360" y="840" type="curve"/>
      <point x="360" y="790" type="line"/>
      <point x="208" y="714"/>
      <point x="180" y="556"/>
      <point x="180" y="380" type="curve" smooth="yes"/>
      <point x="180" y="360" type="line"/>
      <point x="180" y="340" type="line" smooth="yes"/>
      <point x="180" y="164"/>
      <point x="208" y="6"/>
      <point x="360" y="-70" type="curve"/>
      <point x="360" y="-120" type="line"/>
      <point x="160" y="-48"/>
      <point x="90" y="118"/>
      <point x="90" y="340" type="curve" smooth="yes"/>
    </contour>
  </outline>
</glyph>
<glyph name="plus" format="1">
  <advance width="560"/>
  <unicode hex="002B"/>
  <outline>
    <contour>
      <point x="320" y="130" type="line"/>
      <point x="240" y="130" type="line"/>
      <point x="240" y="285" type="line"/>
      <point x="80" y="285" type="line"/>
      <point x="80" y="355" type="line"/>
      <point x="240" y="355" type="line"/>
      <point x="240" y="510" type="line"/>
      <point x="320" y="510" type="line"/>
      <point x="320" y="355" type="line"/>
      <point x="480" y="355" type="line"/>
      <point x="480" y="285" type="line"/>
      <point x="320" y="285" type="line"/>
    </contour>
  </outline>
</glyph>
<glyph name="comma" format="1">
  <advance width="320"/>
  <unicode hex="002C"/>
  <outline>
    <contour>
      <point x="160" y="140" type="curve" smooth="yes"/>
      <point x="211" y="140"/>
      <point x="240" y="101"/>
      <point x="240" y="50" type="curve" smooth="yes"/>
      <point x="240" y="-28"/>
      <point x="194" y="-107"/>
      <point x="135" y="-150" type="curve"/>
      <point x="80" y="-150" type="line"/>
      <point x="130" y="-107"/>
      <point x="160" y="-55"/>
      <point x="160" y="0" type="curve"/>
      <point x="121" y="0"/>
      <point x="90" y="31"/>
      <point x="90" y="70" type="curve" smooth="yes"/>
      <point x="90" y="109"/>
      <point x="121" y="140"/>
    </contour>
  </outline>
</glyph>
<glyph name="zero" format="1">
  <advance width="660"/>
  <unicode hex="0030"/>
  <outline>
    <contour>
      <point x="80" y="240" type="curve" smooth="yes"/>
      <point x="80" y="560" type="line" smooth="yes"/>
      <point x="80" y="715"/>
      <point x="175" y="820"/>
      <point x="330" y="820" type="curve" smooth="yes"/>
      <point x="485" y="820"/>
      <point x="580" y="715"/>
      <point x="580" y="560" type="curve" smooth="yes"/>
      <point x="580" y="240" type="line" smooth="yes"/>
      <point x="580" y="85"/>
      <point x="485" y="-20"/>
      <point x="330" y="-20" type="curve" smooth="yes"/>
      <point x="175" y="-20"/>
      <point x="80" y="85"/>
    </contour>
    <contour>
      <point x="180" y="240" type="line" smooth="yes"/>
      <point x="180" y="141"/>
      <point x="232" y="70"/>
      <point x="330" y="70" type="curve" smooth="yes"/>
      <point x="428" y="70"/>
      <point x="480" y="141"/>
      <point x="480" y="240" type="curve" smooth="yes"/>
      <point x="480" y="560" type="line" smooth="yes"/>
      <point x="480" y="659"/>
      <point x="428" y="730"/>
      <point x="330" y="730" type="curve" smooth="yes"/>
      <point x="232" y="730"/>
      <point x="180" y="659"/>
      <point x="180" y="560" type="curve" smooth="yes"/>
    </contour>
  </outline>
</glyph>
<glyph name="one" format="1">
  <advance width="660"/>
  <unicode hex="0031"/>
  <outline>
    <contour>
      <point x="370" y="630" type="line"/>
      <point x="329" y="567"/>
      <point x="209" y="525"/>
      <point x="110" y="525" type="curve"/>
      <point x="110" y="620" type="line"/>
      <point x="226" y="620"/>
      <point x="370" y="706"/>
      <point x="370" y="800" type="curve"/>
      <point x="470" y="800" type="line"/>
      <point x="470" y="0" type="line"/>
      <point x="370" y="0" type="line"/>
    </contour>
  </outline>
</glyph>
<glyph name="two" format="1">
  <advance width="660"/>
  <unicode hex="0032"/>
  <outline>
    <contour>
      <point x="470" y="595" type="curve" smooth="yes"/>
      <point x="470" y="670"/>
      <point x="420" y="730"/>
      <point x="330" y="730" type="curve" smooth="yes"/>
      <point x="240" y="730"/>
      <point x="190" y="670"/>
      <point x="190" y="595" type="curve"/>
      <point x="90" y="595" type="line"/>
      <point x="90" y="719"/>
      <point x="188" y="820"/>
      <point x="330" y="820" type="curve" smooth="yes"/>
      <point x="472" y="820"/>
      <point x="570" y="719"/>
      <point x="570" y="595" type="curve" smooth="yes"/>
      <point x="570" y="483"/>
      <point x="483" y="405"/>
      <point x="390" y="340" type="curve" smooth="yes"/>
      <point x="294" y="273"/>
      <point x="190" y="195"/>
      <point x="190" y="90" type="curve"/>
      <point x="580" y="90" type="line"/>
      <point x="580" y="0" type="line"/>
      <point x="80" y="0" type="line"/>
      <point x="80" y="90" type="line" smooth="yes"/>
      <point x="80" y="207"/>
      <point x="176" y="297"/>
      <point x="270" y="370" type="curve" smooth="yes"/>
      <point x="351" y="433"/>
      <point x="470" y="495"/>
    </contour>
  </outline>
</glyph>
<glyph name="three" format="1">
  <advance width="660"/>
  <unicode hex="0033"/>
  <outline>
    <contour>
      <point x="60" y="220" type="curve"/>
      <point x="160" y="220" type="line"/>
      <point x="160" y="137"/>
      <point x="217" y="70"/>
      <point x="320" y="70" type="curve" smooth="yes"/>
      <point x="423" y="70"/>
      <point x="480" y="137"/>
      <point x="480" y="220" type="curve" smooth="yes"/>
      <point x="480" y="303"/>
      <point x="423" y="375"/>
      <point x="320" y="375" type="curve" smooth="yes"/>
      <point x="240" y="375" type="line"/>
      <point x="240" y="455" type="line"/>
      <point x="320" y="455" type="line" smooth="yes"/>
      <point x="410" y="455"/>
      <point x="460" y="520"/>
      <point x="460" y="595" type="curve" smooth="yes"/>
      <point x="460" y="670"/>
      <point x="410" y="730"/>
      <point x="320" y="730" type="curve" smooth="yes"/>
      <point x="230" y="730"/>
      <point x="180" y="670"/>
      <point x="180" y="595" type="curve"/>
      <point x="80" y="595" type="line"/>
      <point x="80" y="719"/>
      <point x="178" y="820"/>
      <point x="320" y="820" type="curve" smooth="yes"/>
      <point x="462" y="820"/>
      <point x="560" y="719"/>
      <point x="560" y="595" type="curve" smooth="yes"/>
      <point x="560" y="522"/>
      <point x="526" y="458"/>
      <point x="468" y="418" type="curve"/>
      <point x="538" y="378"/>
      <point x="580" y="307"/>
      <point x="580" y="220" type="curve" smooth="yes"/>
      <point x="580" y="82"/>
      <point x="476" y="-20"/>
      <point x="320" y="-20" type="curve" smooth="yes"/>
      <point x="164" y="-20"/>
      <point x="60" y="82"/>
    </contour>
  </outline>
</glyph>
<glyph name="four" format="1">
  <advance width="660"/>
  <unicode hex="0034"/>
  <outline>
    <contour>
      <point x="70" y="240" type="line"/>
      <point x="410" y="800" type="line"/>
      <point x="510" y="800" type="line"/>
      <point x="510" y="240" type="line"/>
      <point x="590" y="240" type="line"/>
      <point x="590" y="150" type="line"/>
      <point x="510" y="150" type="line"/>
      <point x="510" y="0" type="line"/>
      <point x="410" y="0" type="line"/>
      <point x="410" y="150" type="line"/>
      <point x="70" y="150" type="line"/>
    </contour>
    <contour>
      <point x="170" y="240" type="line"/>
      <point x="410" y="240" type="line"/>
      <point x="410" y="630" type="line"/>
    </contour>
  </outline>
</glyph>
<glyph name="seven" format="1">
  <advance width="660"/>
  <unicode hex="0037"/>
  <outline>
    <contour>
      <point x="240" y="0" type="line"/>
      <point x="240" y="210" type="line" smooth="yes"/>
      <point x="240" y="510"/>
      <point x="460" y="710"/>
      <point x="460" y="710" type="curve"/>
      <point x="90" y="710" type="line"/>
      <point x="90" y="800" type="line"/>
      <point x="570" y="800" type="line"/>
      <point x="570" y="710" type="line"/>
      <point x="570" y="710"/>
      <point x="340" y="516"/>
      <point x="340" y="210" type="curve" smooth="yes"/>
      <point x="340" y="0" type="line"/>
    </contour>
  </outline>
</glyph>
<glyph name="eight" format="1">
  <advance width="660"/>
  <unicode hex="0038"/>
  <outline>
    <contour>
      <point x="330" y="375" type="curve" smooth="yes"/>
      <point x="227" y="375"/>
      <point x="170" y="303"/>
      <point x="170" y="220" type="curve" smooth="yes"/>
      <point x="170" y="137"/>
      <point x="227" y="70"/>
      <point x="330" y="70" type="curve" smooth="yes"/>
      <point x="433" y="70"/>
      <point x="490" y="137"/>
      <point x="490" y="220" type="curve" smooth="yes"/>
      <point x="490" y="303"/>
      <point x="433" y="375"/>
    </contour>
    <contour>
      <point x="330" y="455" type="curve" smooth="yes"/>
      <point x="420" y="455"/>
      <point x="470" y="520"/>
      <point x="470" y="595" type="curve" smooth="yes"/>
      <point x="470" y="670"/>
      <point x="420" y="730"/>
      <point x="330" y="730" type="curve" smooth="yes"/>
      <point x="240" y="730"/>
      <point x="190" y="670"/>
      <point x="190" y="595" type="curve" smooth="yes"/>
      <point x="190" y="520"/>
      <point x="240" y="455"/>
    </contour>
    <contour>
      <point x="478" y="418" type="curve"/>
      <point x="548" y="378"/>
      <point x="590" y="307"/>
      <point x="590" y="220" type="curve" smooth="yes"/>
      <point x="590" y="82"/>
      <point x="486" y="-20"/>
      <point x="330" y="-20" type="curve" smooth="yes"/>
      <point x="174" y="-20"/>
      <point x="70" y="82"/>
      <point x="70" y="220" type="curve" smooth="yes"/>
      <point x="70" y="307"/>
      <point x="112" y="378"/>
      <point x="182" y="418" type="curve"/>
      <point x="124" y="458"/>
      <point x="90" y="522"/>
      <point x="90" y="595" type="curve" smooth="yes"/>
      <point x="90" y="719"/>
      <point x="188" y="820"/>
      <point x="330" y="820" type="curve" smooth="yes"/>
      <point x="472" y="820"/>
      <point x="570" y="719"/>
      <point x="570" y="595" type="curve" smooth="yes"/>
      <point x="570" y="522"/>
      <point x="536" y="458"/>
    </contour>
  </outline>
</glyph>
<glyph name="less" format="1">
  <advance width="560"/>
  <unicode hex="003C"/>
  <outline>
    <contour>
      <point x="80" y="295" type="line"/>
      <point x="80" y="345" type="line"/>
      <point x="480" y="550" type="line"/>
      <point x="480" y="465" type="line"/>
      <point x="190" y="320" type="line"/>
      <point x="480" y="175" type="line"/>
      <point x="480" y="90" type="line"/>
    </contour>
  </outline>
</glyph>
<glyph name="question" format="1">
  <advance width="600"/>
  <unicode hex="003F"/>
  <outline>
    <contour>
      <point x="360" y="70" type="curve" smooth="yes"/>
      <point x="360" y="31"/>
      <point x="329" y="0"/>
      <point x="290" y="0" type="curve" smooth="yes"/>
      <point x="251" y="0"/>
      <point x="220" y="31"/>
      <point x="220" y="70" type="curve" smooth="yes"/>
      <point x="220" y="109"/>
      <point x="251" y="140"/>
      <point x="290" y="140" type="curve" smooth="yes"/>
      <point x="329" y="140"/>
      <point x="360" y="109"/>
    </contour>
    <contour>
      <point x="170" y="580" type="curve"/>
      <point x="80" y="550" type="line"/>
      <point x="68" y="576"/>
      <point x="60" y="607"/>
      <point x="60" y="640" type="curve" smooth="yes"/>
      <point x="60" y="773"/>
      <point x="167" y="860"/>
      <point x="300" y="860" type="curve" smooth="yes"/>
      <point x="433" y="860"/>
      <point x="540" y="773"/>
      <point x="540" y="640" type="curve" smooth="yes"/>
      <point x="540" y="529"/>
      <point x="470" y="486"/>
      <point x="390" y="430" type="curve" smooth="yes"/>
      <point x="341" y="396"/>
      <point x="335" y="313"/>
      <point x="335" y="240" type="curve"/>
      <point x="235" y="240" type="line"/>
      <point x="235" y="343"/>
      <point x="237" y="431"/>
      <point x="340" y="500" type="curve" smooth="yes"/>
      <point x="402" y="542"/>
      <point x="440" y="567"/>
      <point x="440" y="640" type="curve" smooth="yes"/>
      <point x="440" y="718"/>
      <point x="379" y="770"/>
      <point x="300" y="770" type="curve" smooth="yes"/>
      <point x="221" y="770"/>
      <point x="160" y="718"/>
      <point x="160" y="640" type="curve" smooth="yes"/>
      <point x="160" y="619"/>
      <point x="163" y="596"/>
    </contour>
  </outline>
</glyph>
<glyph name="at" format="1">
  <advance width="1140"/>
  <unicode hex="0040"/>
  <outline>
    <contour>
      <point x="685" y="236" type="curve"/>
      <point x="685" y="446" type="line"/>
      <point x="665" y="476"/>
      <point x="625" y="505"/>
      <point x="560" y="505" type="curve" smooth="yes"/>
      <point x="492" y="505"/>
      <point x="430" y="464"/>
      <point x="430" y="370" type="curve" smooth="yes"/>
      <point x="430" y="290" type="line" smooth="yes"/>
      <point x="430" y="196"/>
      <point x="492" y="155"/>
      <point x="560" y="155" type="curve" smooth="yes"/>
      <point x="631" y="155"/>
      <point x="669" y="198"/>
    </contour>
    <contour>
      <point x="685" y="570" type="line"/>
      <point x="785" y="570" type="line"/>
      <point x="785" y="250" type="line" smooth="yes"/>
      <point x="785" y="174"/>
      <point x="823" y="150"/>
      <point x="860" y="150" type="curve" smooth="yes"/>
      <point x="905" y="150"/>
      <point x="990" y="176"/>
      <point x="990" y="330" type="curve" smooth="yes"/>
      <point x="990" y="579"/>
      <point x="819" y="775"/>
      <point x="570" y="775" type="curve" smooth="yes"/>
      <point x="321" y="775"/>
      <point x="150" y="579"/>
      <point x="150" y="330" type="curve" smooth="yes"/>
      <point x="150" y="81"/>
      <point x="321" y="-115"/>
      <point x="570" y="-115" type="curve"/>
      <point x="681" y="-110"/>
      <point x="749" y="-87"/>
      <point x="822" y="-38" type="curve"/>
      <point x="861" y="-96" type="line"/>
      <point x="775" y="-154"/>
      <point x="671" y="-179"/>
      <point x="570" y="-180" type="curve"/>
      <point x="283" y="-180"/>
      <point x="80" y="43"/>
      <point x="80" y="330" type="curve" smooth="yes"/>
      <point x="80" y="617"/>
      <point x="283" y="840"/>
      <point x="570" y="840" type="curve" smooth="yes"/>
      <point x="857" y="840"/>
      <point x="1060" y="617"/>
      <point x="1060" y="330" type="curve" smooth="yes"/>
      <point x="1060" y="133"/>
      <point x="947" y="70"/>
      <point x="860" y="70" type="curve" smooth="yes"/>
      <point x="784" y="70"/>
      <point x="730" y="94"/>
      <point x="703" y="139" type="curve"/>
      <point x="667" y="100"/>
      <point x="614" y="70"/>
      <point x="545" y="70" type="curve" smooth="yes"/>
      <point x="427" y="70"/>
      <point x="330" y="141"/>
      <point x="330" y="290" type="curve" smooth="yes"/>
      <point x="330" y="370" type="line" smooth="yes"/>
      <point x="330" y="513"/>
      <point x="432" y="590"/>
      <point x="545" y="590" type="curve" smooth="yes"/>
      <point x="605" y="590"/>
      <point x="652" y="566"/>
      <point x="685" y="533" type="curve"/>
    </contour>
  </outline>
</glyph>
<glyph name="C" format="1">
  <advance width="810"/>
  <unicode hex="0043"/>
  <outline>
    <contour>
      <point x="410" y="820" type="curve" smooth="yes"/>
      <point x="597" y="820"/>
      <point x="730" y="712"/>
      <point x="730" y="540" type="curve"/>
      <point x="630" y="540" type="line"/>
      <point x="630" y="665"/>
      <point x="542" y="735"/>
      <point x="410" y="735" type="curve" smooth="yes"/>
      <point x="278" y="735"/>
      <point x="190" y="665"/>
      <point x="190" y="540" type="curve" smooth="yes"/>
      <point x="190" y="250" type="line" smooth="yes"/>
      <point x="190" y="135"/>
      <point x="283" y="70"/>
      <point x="410" y="70" type="curve" smooth="yes"/>
      <point x="537" y="70"/>
      <point x="630" y="135"/>
      <point x="630" y="250" type="curve"/>
      <point x="730" y="250" type="line"/>
      <point x="730" y="78"/>
      <point x="587" y="-20"/>
      <point x="410" y="-20" type="curve" smooth="yes"/>
      <point x="233" y="-20"/>
      <point x="90" y="78"/>
      <point x="90" y="250" type="curve" smooth="yes"/>
      <point x="90" y="540" type="line" smooth="yes"/>
      <point x="90" y="712"/>
      <point x="223" y="820"/>
    </contour>
  </outline>
</glyph>
<glyph name="D" format="1">
  <advance width="780"/>
  <unicode hex="0044"/>
  <outline>
    <contour>
      <point x="310" y="715" type="curve" smooth="yes"/>
      <point x="200" y="715" type="line"/>
      <point x="200" y="90" type="line"/>
      <point x="350" y="90" type="line" smooth="yes"/>
      <point x="489" y="90"/>
      <point x="610" y="143"/>
      <point x="610" y="330" type="curve" smooth="yes"/>
      <point x="610" y="450" type="line" smooth="yes"/>
      <point x="610" y="639"/>
      <point x="521" y="715"/>
    </contour>
    <contour>
      <point x="310" y="800" type="line" smooth="yes"/>
      <point x="581" y="800"/>
      <point x="710" y="684"/>
      <point x="710" y="450" type="curve" smooth="yes"/>
      <point x="710" y="330" type="line" smooth="yes"/>
      <point x="710" y="101"/>
      <point x="591" y="0"/>
      <point x="350" y="0" type="curve" smooth="yes"/>
      <point x="100" y="0" type="line"/>
      <point x="100" y="800" type="line"/>
    </contour>
  </outline>
</glyph>
<glyph name="J" format="1">
  <advance width="550"/>
  <unicode hex="004A"/>
  <outline>
    <contour>
      <point x="230" y="-20" type="curve" smooth="yes"/>
      <point x="106" y="-20"/>
      <point x="30" y="53"/>
      <point x="30" y="150" type="curve"/>
      <point x="130" y="150" type="line"/>
      <point x="130" y="99"/>
      <point x="164" y="65"/>
      <point x="230" y="65" type="curve" smooth="yes"/>
      <point x="295" y="65"/>
      <point x="330" y="99"/>
      <point x="330" y="150" type="curve" smooth="yes"/>
      <point x="330" y="800" type="line"/>
      <point x="430" y="800" type="line"/>
      <point x="430" y="150" type="line" smooth="yes"/>
      <point x="430" y="53"/>
      <point x="355" y="-20"/>
    </contour>
  </outline>
</glyph>
<glyph name="K" format="1">
  <advance width="750"/>
  <unicode hex="004B"/>
  <outline>
    <contour>
      <point x="560" y="800" type="line"/>
      <point x="670" y="800" type="line"/>
      <point x="390" y="440" type="line"/>
      <point x="720" y="0" type="line"/>
      <point x="600" y="0" type="line"/>
      <point x="320" y="375" type="line"/>
      <point x="200" y="375" type="line"/>
      <point x="200" y="0" type="line"/>
      <point x="100" y="0" type="line"/>
      <point x="100" y="800" type="line"/>
      <point x="200" y="800" type="line"/>
      <point x="200" y="465" type="line"/>
      <point x="303" y="465" type="line"/>
    </contour>
  </outline>
</glyph>
<glyph name="L" format="1">
  <advance width="600"/>
  <unicode hex="004C"/>
  <outline>
    <contour>
      <point x="100" y="800" type="line"/>
      <point x="200" y="800" type="line"/>
      <point x="200" y="90" type="line"/>
      <point x="580" y="90" type="line"/>
      <point x="580" y="0" type="line"/>
      <point x="100" y="0" type="line"/>
    </contour>
  </outline>
</glyph>
<glyph name="Q" format="1">
  <advance width="800"/>
  <unicode hex="0051"/>
  <outline>
    <contour>
      <point x="720" y="520" type="curve" smooth="yes"/>
      <point x="720" y="270" type="line" smooth="yes"/>
      <point x="720" y="192"/>
      <point x="694" y="127"/>
      <point x="649" y="79" type="curve"/>
      <point x="755" y="-25" type="line"/>
      <point x="700" y="-80" type="line"/>
      <point x="589" y="29" type="line"/>
      <point x="536" y="-3"/>
      <point x="471" y="-20"/>
      <point x="400" y="-20" type="curve" smooth="yes"/>
      <point x="223" y="-20"/>
      <point x="80" y="88"/>
      <point x="80" y="270" type="curve" smooth="yes"/>
      <point x="80" y="520" type="line" smooth="yes"/>
      <point x="80" y="706"/>
      <point x="223" y="820"/>
      <point x="400" y="820" type="curve" smooth="yes"/>
      <point x="577" y="820"/>
      <point x="720" y="707"/>
    </contour>
    <contour>
      <point x="620" y="520" type="line" smooth="yes"/>
      <point x="620" y="649"/>
      <point x="527" y="735"/>
      <point x="400" y="735" type="curve" smooth="yes"/>
      <point x="273" y="735"/>
      <point x="180" y="649"/>
      <point x="180" y="520" type="curve" smooth="yes"/>
      <point x="180" y="270" type="line" smooth="yes"/>
      <point x="180" y="150"/>
      <point x="269" y="70"/>
      <point x="400" y="70" type="curve" smooth="yes"/>
      <point x="446" y="70"/>
      <point x="486" y="80"/>
      <point x="520" y="97" type="curve"/>
      <point x="410" y="205" type="line"/>
      <point x="465" y="260" type="line"/>
      <point x="580" y="147" type="line"/>
      <point x="606" y="180"/>
      <point x="620" y="222"/>
      <point x="620" y="270" type="curve" smooth="yes"/>
    </contour>
  </outline>
</glyph>
<glyph name="S" format="1">
  <advance width="790"/>
  <unicode hex="0053"/>
  <outline>
    <contour>
      <point x="710" y="220" type="curve" smooth="yes"/>
      <point x="710" y="78"/>
      <point x="581" y="-20"/>
      <point x="395" y="-20" type="curve" smooth="yes"/>
      <point x="198" y="-20"/>
      <point x="80" y="88"/>
      <point x="80" y="250" type="curve"/>
      <point x="180" y="250" type="line"/>
      <point x="180" y="147"/>
      <point x="257" y="70"/>
      <point x="395" y="70" type="curve" smooth="yes"/>
      <point x="533" y="70"/>
      <point x="605" y="137"/>
      <point x="605" y="220" type="curve" smooth="yes"/>
      <point x="605" y="315"/>
      <point x="509" y="344"/>
      <point x="390" y="370" type="curve" smooth="yes"/>
      <point x="257" y="399"/>
      <point x="100" y="436"/>
      <point x="100" y="590" type="curve" smooth="yes"/>
      <point x="100" y="694"/>
      <point x="202" y="820"/>
      <point x="390" y="820" type="curve" smooth="yes"/>
      <point x="578" y="820"/>
      <point x="680" y="694"/>
      <point x="680" y="590" type="curve"/>
      <point x="580" y="590" type="line"/>
      <point x="580" y="665"/>
      <point x="508" y="730"/>
      <point x="390" y="730" type="curve" smooth="yes"/>
      <point x="272" y="730"/>
      <point x="205" y="665"/>
      <point x="205" y="590" type="curve" smooth="yes"/>
      <point x="205" y="513"/>
      <point x="291" y="489"/>
      <point x="390" y="470" type="curve" smooth="yes"/>
      <point x="546" y="440"/>
      <point x="710" y="395"/>
    </contour>
  </outline>
</glyph>
<glyph name="T" format="1">
  <advance width="620"/>
  <unicode hex="0054"/>
  <outline>
    <contour>
      <point x="590" y="800" type="line"/>
      <point x="590" y="710" type="line"/>
      <point x="360" y="710" type="line"/>
      <point x="360" y="0" type="line"/>
      <point x="260" y="0" type="line"/>
      <point x="260" y="710" type="line"/>
      <point x="30" y="710" type="line"/>
      <point x="30" y="800" type="line"/>
    </contour>
  </outline>
</glyph>
<glyph name="U" format="1">
  <advance width="800"/>
  <unicode hex="0055"/>
  <outline>
    <contour>
      <point x="90" y="800" type="line"/>
      <point x="190" y="800" type="line"/>
      <point x="190" y="280" type="line" smooth="yes"/>
      <point x="190" y="131"/>
      <point x="297" y="70"/>
      <point x="400" y="70" type="curve" smooth="yes"/>
      <point x="503" y="70"/>
      <point x="610" y="131"/>
      <point x="610" y="280" type="curve" smooth="yes"/>
      <point x="610" y="800" type="line"/>
      <point x="710" y="800" type="line"/>
      <point x="710" y="280" type="line" smooth="yes"/>
      <point x="710" y="85"/>
      <point x="573" y="-20"/>
      <point x="400" y="-20" type="curve" smooth="yes"/>
      <point x="227" y="-20"/>
      <point x="90" y="85"/>
      <point x="90" y="280" type="curve" smooth="yes"/>
    </contour>
  </outline>
</glyph>
<glyph name="V" format="1">
  <advance width="800"/>
  <unicode hex="0056"/>
  <outline>
    <contour>
      <point x="350" y="0" type="line"/>
      <point x="30" y="800" type="line"/>
      <point x="140" y="800" type="line"/>
      <point x="400" y="129" type="line"/>
      <point x="660" y="800" type="line"/>
      <point x="770" y="800" type="line"/>
      <point x="450" y="0" type="line"/>
    </contour>
  </outline>
</glyph>
<glyph name="X" format="1">
  <advance width="800"/>
  <unicode hex="0058"/>
  <outline>
    <contour>
      <point x="60" y="800" type="line"/>
      <point x="185" y="800" type="line"/>
      <point x="400" y="506" type="line"/>
      <point x="615" y="800" type="line"/>
      <point x="740" y="800" type="line"/>
      <point x="463" y="421" type="line"/>
      <point x="770" y="0" type="line"/>
      <point x="645" y="0" type="line"/>
      <point x="400" y="335" type="line"/>
      <point x="155" y="0" type="line"/>
      <point x="30" y="0" type="line"/>
      <point x="337" y="421" type="line"/>
    </contour>
  </outline>
</glyph>
<glyph name="Z" format="1">
  <advance width="740"/>
  <unicode hex="005A"/>
  <outline>
    <contour>
      <point x="90" y="800" type="line"/>
      <point x="660" y="800" type="line"/>
      <point x="660" y="710" type="line"/>
      <point x="200" y="100" type="line"/>
      <point x="680" y="100" type="line"/>
      <point x="680" y="0" type="line"/>
      <point x="60" y="0" type="line"/>
      <point x="60" y="100" type="line"/>
      <point x="530" y="710" type="line"/>
      <point x="90" y="710" type="line"/>
    </contour>
  </outline>
</glyph>
<glyph name="grave" format="1">
  <advance width="420"/>
  <unicode hex="0060"/>
  <outline>
    <contour>
      <point x="60" y="800" type="line"/>
      <point x="190" y="800" type="line"/>
      <point x="360" y="660" type="line"/>
      <point x="260" y="660" type="line"/>
    </contour>
  </outline>
</glyph>
<glyph name="a" format="1">
  <advance width="660"/>
  <unicode hex="0061"/>
  <outline>
    <contour>
      <point x="330" y="620" type="curve" smooth="yes"/>
      <point x="482" y="620"/>
      <point x="570" y="525"/>
      <point x="570" y="410" type="curve" smooth="yes"/>
      <point x="570" y="0" type="line"/>
      <point x="470" y="0" type="line"/>
      <point x="470" y="63" type="line"/>
      <point x="429" y="19"/>
      <point x="363" y="-20"/>
      <point x="270" y="-20" type="curve" smooth="yes"/>
      <point x="151" y="-20"/>
      <point x="80" y="64"/>
      <point x="80" y="140" type="curve" smooth="yes"/>
      <point x="80" y="210" type="line" smooth="yes"/>
      <point x="80" y="275"/>
      <point x="151" y="350"/>
      <point x="270" y="350" type="curve" smooth="yes"/>
      <point x="367" y="350"/>
      <point x="432" y="312"/>
      <point x="470" y="278" type="curve"/>
      <point x="470" y="410" type="line" smooth="yes"/>
      <point x="470" y="473"/>
      <point x="429" y="535"/>
      <point x="330" y="535" type="curve" smooth="yes"/>
      <point x="231" y="535"/>
      <point x="190" y="470"/>
      <point x="190" y="410" type="curve"/>
      <point x="90" y="410" type="line"/>
      <point x="90" y="524"/>
      <point x="178" y="620"/>
    </contour>
    <contour>
      <point x="180" y="190" type="curve" smooth="yes"/>
      <point x="180" y="150" type="line" smooth="yes"/>
      <point x="180" y="107"/>
      <point x="223" y="60"/>
      <point x="300" y="60" type="curve" smooth="yes"/>
      <point x="395" y="60"/>
      <point x="463" y="118"/>
      <point x="470" y="160" type="curve"/>
      <point x="470" y="205" type="line"/>
      <point x="436" y="236"/>
      <point x="368" y="270"/>
      <point x="290" y="270" type="curve" smooth="yes"/>
      <point x="223" y="270"/>
      <point x="180" y="239"/>
    </contour>
  </outline>
</glyph>
<glyph name="b" format="1">
  <advance width="730"/>
  <unicode hex="0062"/>
  <outline>
    <contour>
      <point x="370" y="535" type="curve" smooth="yes"/>
      <point x="298" y="535"/>
      <point x="239" y="495"/>
      <point x="210" y="436" type="curve"/>
      <point x="210" y="161" type="line"/>
      <point x="232" y="116"/>
      <point x="290" y="70"/>
      <point x="370" y="70" type="curve" smooth="yes"/>
      <point x="462" y="70"/>
      <point x="540" y="111"/>
      <point x="540" y="240" type="curve" smooth="yes"/>
      <point x="540" y="340" type="line" smooth="yes"/>
      <point x="540" y="489"/>
      <point x="455" y="535"/>
    </contour>
    <contour>
      <point x="110" y="840" type="line"/>
      <point x="210" y="840" type="line"/>
      <point x="210" y="542" type="line"/>
      <point x="254" y="588"/>
      <point x="315" y="620"/>
      <point x="390" y="620" type="curve" smooth="yes"/>
      <point x="534" y="620"/>
      <point x="640" y="528"/>
      <point x="640" y="340" type="curve" smooth="yes"/>
      <point x="640" y="240" type="line" smooth="yes"/>
      <point x="640" y="81"/>
      <point x="546" y="-20"/>
      <point x="390" y="-20" type="curve" smooth="yes"/>
      <point x="308" y="-20"/>
      <point x="247" y="20"/>
      <point x="210" y="74" type="curve"/>
      <point x="210" y="0" type="line"/>
      <point x="110" y="0" type="line"/>
    </contour>
  </outline>
</glyph>
<glyph name="c" format="1">
  <advance width="660"/>
  <unicode hex="0063"/>
  <outline>
    <contour>
      <point x="190" y="390" type="curve" smooth="yes"/>
      <point x="190" y="190" type="line" smooth="yes"/>
      <point x="190" y="106"/>
      <point x="255" y="70"/>
      <point x="345" y="70" type="curve" smooth="yes"/>
      <point x="435" y="70"/>
      <point x="490" y="96"/>
      <point x="490" y="190" type="curve"/>
      <point x="590" y="190" type="line"/>
      <point x="590" y="52"/>
      <point x="489" y="-20"/>
      <point x="345" y="-20" type="curve" smooth="yes"/>
      <point x="201" y="-20"/>
      <point x="90" y="42"/>
      <point x="90" y="190" type="curve" smooth="yes"/>
      <point x="90" y="390" type="line" smooth="yes"/>
      <point x="90" y="538"/>
      <point x="201" y="620"/>
      <point x="345" y="620" type="curve" smooth="yes"/>
      <point x="489" y="620"/>
      <point x="590" y="538"/>
      <point x="590" y="410" type="curve"/>
      <point x="490" y="410" type="line"/>
      <point x="490" y="494"/>
      <point x="435" y="535"/>
      <point x="345" y="535" type="curve" smooth="yes"/>
      <point x="255" y="535"/>
      <point x="190" y="494"/>
    </contour>
  </outline>
</glyph>
<glyph name="h" format="1">
  <advance width="700"/>
  <unicode hex="0068"/>
  <outline>
    <contour>
      <point x="110" y="840" type="line"/>
      <point x="210" y="840" type="line"/>
      <point x="210" y="498" type="line"/>
      <point x="234" y="538"/>
      <point x="296" y="620"/>
      <point x="410" y="620" type="curve" smooth="yes"/>
      <point x="532" y="620"/>
      <point x="610" y="542"/>
      <point x="610" y="420" type="curve" smooth="yes"/>
      <point x="610" y="0" type="line"/>
      <point x="510" y="0" type="line"/>
      <point x="510" y="420" type="line" smooth="yes"/>
      <point x="510" y="495"/>
      <point x="458" y="530"/>
      <point x="390" y="530" type="curve" smooth="yes"/>
      <point x="290" y="530"/>
      <point x="232" y="458"/>
      <point x="210" y="394" type="curve"/>
      <point x="210" y="0" type="line"/>
      <point x="110" y="0" type="line"/>
    </contour>
  </outline>
</glyph>
<glyph name="i" format="1">
  <advance width="360"/>
  <unicode hex="0069"/>
  <outline>
    <contour>
      <point x="250" y="780" type="curve" smooth="yes"/>
      <point x="250" y="741"/>
      <point x="219" y="710"/>
      <point x="180" y="710" type="curve" smooth="yes"/>
      <point x="141" y="710"/>
      <point x="110" y="741"/>
      <point x="110" y="780" type="curve" smooth="yes"/>
      <point x="110" y="819"/>
      <point x="141" y="850"/>
      <point x="180" y="850" type="curve" smooth="yes"/>
      <point x="219" y="850"/>
      <point x="250" y="819"/>
    </contour>
    <contour>
      <point x="130" y="600" type="line"/>
      <point x="230" y="600" type="line"/>
      <point x="230" y="0" type="line"/>
      <point x="130" y="0" type="line"/>
    </contour>
  </outline>
</glyph>
<glyph name="j" format="1">
  <advance width="360"/>
  <unicode hex="006A"/>
  <outline>
    <contour>
      <point x="15" y="-225" type="curve"/>
      <point x="35" y="-160" type="line"/>
      <point x="44" y="-165"/>
      <point x="62" y="-175"/>
      <point x="85" y="-175" type="curve" smooth="yes"/>
      <point x="109" y="-175"/>
      <point x="130" y="-166"/>
      <point x="130" y="-140" type="curve" smooth="yes"/>
      <point x="130" y="600" type="line"/>
      <point x="225" y="600" type="line"/>
      <point x="225" y="-150" type="line" smooth="yes"/>
      <point x="225" y="-214"/>
      <point x="185" y="-250"/>
      <point x="115" y="-250" type="curve" smooth="yes"/>
      <point x="62" y="-250"/>
      <point x="28" y="-232"/>
    </contour>
    <contour>
      <point x="250" y="780" type="curve" smooth="yes"/>
      <point x="250" y="741"/>
      <point x="219" y="710"/>
      <point x="180" y="710" type="curve" smooth="yes"/>
      <point x="141" y="710"/>
      <point x="110" y="741"/>
      <point x="110" y="780" type="curve" smooth="yes"/>
      <point x="110" y="819"/>
      <point x="141" y="850"/>
      <point x="180" y="850" type="curve" smooth="yes"/>
      <point x="219" y="850"/>
      <point x="250" y="819"/>
    </contour>
  </outline>
</glyph>
<glyph name="l" format="1">
  <advance width="360"/>
  <unicode hex="006C"/>
  <outline>
    <contour>
      <point x="340" y="15" type="line"/>
      <point x="327" y="8"/>
      <point x="293" y="-10"/>
      <point x="240" y="-10" type="curve" smooth="yes"/>
      <point x="170" y="-10"/>
      <point x="130" y="26"/>
      <point x="130" y="90" type="curve" smooth="yes"/>
      <point x="130" y="840" type="line"/>
      <point x="230" y="840" type="line"/>
      <point x="230" y="105" type="line" smooth="yes"/>
      <point x="230" y="79"/>
      <point x="246" y="70"/>
      <point x="270" y="70" type="curve" smooth="yes"/>
      <point x="293" y="70"/>
      <point x="311" y="80"/>
      <point x="320" y="85" type="curve"/>
    </contour>
  </outline>
</glyph>
<glyph name="m" format="1">
  <advance width="990"/>
  <unicode hex="006D"/>
  <outline>
    <contour>
      <point x="100" y="600" type="line"/>
      <point x="200" y="600" type="line"/>
      <point x="200" y="528" type="line"/>
      <point x="232" y="574"/>
      <point x="286" y="620"/>
      <point x="365" y="620" type="curve" smooth="yes"/>
      <point x="439" y="620"/>
      <point x="496" y="585"/>
      <point x="526" y="526" type="curve"/>
      <point x="554" y="562"/>
      <point x="614" y="620"/>
      <point x="710" y="620" type="curve" smooth="yes"/>
      <point x="832" y="620"/>
      <point x="900" y="542"/>
      <point x="900" y="420" type="curve" smooth="yes"/>
      <point x="900" y="0" type="line"/>
      <point x="800" y="0" type="line"/>
      <point x="800" y="420" type="line" smooth="yes"/>
      <point x="800" y="495"/>
      <point x="768" y="530"/>
      <point x="700" y="530" type="curve" smooth="yes"/>
      <point x="630" y="530"/>
      <point x="580" y="491"/>
      <point x="549" y="445" type="curve"/>
      <point x="550" y="437"/>
      <point x="550" y="429"/>
      <point x="550" y="420" type="curve" smooth="yes"/>
      <point x="550" y="0" type="line"/>
      <point x="450" y="0" type="line"/>
      <point x="450" y="420" type="line" smooth="yes"/>
      <point x="450" y="495"/>
      <point x="418" y="530"/>
      <point x="350" y="530" type="curve" smooth="yes"/>
      <point x="281" y="530"/>
      <point x="231" y="486"/>
      <point x="200" y="435" type="curve"/>
      <point x="200" y="0" type="line"/>
      <point x="100" y="0" type="line"/>
    </contour>
  </outline>
</glyph>
<glyph name="r" format="1">
  <advance width="450"/>
  <unicode hex="0072"/>
  <outline>
    <contour>
      <point x="120" y="600" type="line"/>
      <point x="220" y="600" type="line"/>
      <point x="220" y="496" type="line"/>
      <point x="249" y="541"/>
      <point x="309" y="610"/>
      <point x="410" y="610" type="curve"/>
      <point x="410" y="510" type="line"/>
      <point x="318" y="510"/>
      <point x="251" y="457"/>
      <point x="220" y="393" type="curve"/>
      <point x="220" y="0" type="line"/>
      <point x="120" y="0" type="line"/>
    </contour>
  </outline>
</glyph>
<glyph name="v" format="1">
  <advance width="640"/>
  <unicode hex="0076"/>
  <outline>
    <contour>
      <point x="270" y="0" type="line"/>
      <point x="30" y="600" type="line"/>
      <point x="140" y="600" type="line"/>
      <point x="320" y="120" type="line"/>
      <point x="500" y="600" type="line"/>
      <point x="610" y="600" type="line"/>
      <point x="370" y="0" type="line"/>
    </contour>
  </outline>
</glyph>
<glyph name="y" format="1">
  <advance width="660"/>
  <unicode hex="0079"/>
  <outline>
    <contour>
      <point x="510" y="600" type="line"/>
      <point x="620" y="600" type="line"/>
      <point x="380" y="0" type="line"/>
      <point x="340" y="-120" type="line"/>
      <point x="311" y="-194"/>
      <point x="268" y="-240"/>
      <point x="120" y="-240" type="curve"/>
      <point x="120" y="-160" type="line"/>
      <point x="208" y="-160"/>
      <point x="237" y="-136"/>
      <point x="255" y="-80" type="curve"/>
      <point x="280" y="0" type="line"/>
      <point x="40" y="600" type="line"/>
      <point x="150" y="600" type="line"/>
      <point x="330" y="120" type="line"/>
    </contour>
  </outline>
</glyph>
<glyph name="z" format="1">
  <advance width="620"/>
  <unicode hex="007A"/>
  <outline>
    <contour>
      <point x="80" y="600" type="line"/>
      <point x="550" y="600" type="line"/>
      <point x="550" y="510" type="line"/>
      <point x="190" y="100" type="line"/>
      <point x="560" y="100" type="line"/>
      <point x="560" y="0" type="line"/>
      <point x="60" y="0" type="line"/>
      <point x="60" y="100" type="line"/>
      <point x="430" y="510" type="line"/>
      <point x="80" y="510" type="line"/>
    </contour>
  </outline>
</glyph>
<glyph name="uni0E02" format="1">
  <advance width="660"/>
  <unicode hex="0E02"/>
  <outline>
    <contour>
      <point x="560" y="690" type="move" name="mark-th-base-con"/>
    </contour>
    <contour>
      <point x="210" y="610" type="curve" smooth="yes"/>
      <point x="327" y="610"/>
      <point x="380" y="530"/>
      <point x="380" y="460" type="curve" smooth="yes"/>
      <point x="380" y="338"/>
      <point x="290" y="319"/>
      <point x="290" y="200" type="curve" smooth="yes"/>
      <point x="290" y="130" type="line" smooth="yes"/>
      <point x="290" y="97"/>
      <point x="325" y="65"/>
      <point x="380" y="65" type="curve" smooth="yes"/>
      <point x="435" y="65"/>
      <point x="470" y="97"/>
      <point x="470" y="130" type="curve" smooth="yes"/>
      <point x="470" y="600" type="line"/>
      <point x="570" y="600" type="line"/>
      <point x="570" y="130" type="line" smooth="yes"/>
      <point x="570" y="92"/>
      <point x="538" y="-20"/>
      <point x="380" y="-20" type="curve" smooth="yes"/>
      <point x="222" y="-20"/>
      <point x="190" y="92"/>
      <point x="190" y="130" type="curve" smooth="yes"/>
      <point x="190" y="200" type="line" smooth="yes"/>
      <point x="190" y="336"/>
      <point x="300" y="344"/>
      <point x="300" y="460" type="curve" smooth="yes"/>
      <point x="300" y="513"/>
      <point x="263" y="550"/>
      <point x="210" y="550" type="curve" smooth="yes"/>
      <point x="177" y="550"/>
      <point x="149" y="538"/>
      <point x="131" y="517" type="curve"/>
      <point x="139" y="519"/>
      <point x="147" y="520"/>
      <point x="155" y="520" type="curve" smooth="yes"/>
      <point x="202" y="520"/>
      <point x="240" y="482"/>
      <point x="240" y="435" type="curve" smooth="yes"/>
      <point x="240" y="388"/>
      <point x="202" y="350"/>
      <point x="155" y="350" type="curve" smooth="yes"/>
      <point x="95" y="350"/>
      <point x="60" y="395"/>
      <point x="60" y="455" type="curve" smooth="yes"/>
      <point x="60" y="547"/>
      <point x="127" y="610"/>
    </contour>
    <contour>
      <point x="155" y="480" type="curve" smooth="yes"/>
      <point x="130" y="480"/>
      <point x="110" y="460"/>
      <point x="110" y="435" type="curve" smooth="yes"/>
      <point x="110" y="410"/>
      <point x="130" y="390"/>
      <point x="155" y="390" type="curve" smooth="yes"/>
      <point x="180" y="390"/>
      <point x="200" y="410"/>
      <point x="200" y="435" type="curve" smooth="yes"/>
      <point x="200" y="460"/>
      <point x="180" y="480"/>
    </contour>
  </outline>
</glyph>
<glyph name="uni0E0A" format="1">
  <advance width="680"/>
  <unicode hex="0E0A"/>
  <outline>
    <contour>
      <point x="530" y="690" type="move" name="mark-th-base-con"/>
    </contour>
    <contour>
      <point x="374" y="502" type="curve"/>
      <point x="426" y="576"/>
      <point x="524" y="650"/>
      <point x="650" y="650" type="curve"/>
      <point x="650" y="560" type="line"/>
      <point x="550" y="560"/>
      <point x="468" y="518"/>
      <point x="416" y="475" type="curve"/>
      <point x="459" y="460"/>
      <point x="570" y="418"/>
      <point x="570" y="370" type="curve" smooth="yes"/>
      <point x="570" y="130" type="line" smooth="yes"/>
      <point x="570" y="92"/>
      <point x="538" y="-20"/>
      <point x="380" y="-20" type="curve" smooth="yes"/>
      <point x="222" y="-20"/>
      <point x="190" y="92"/>
      <point x="190" y="130" type="curve" smooth="yes"/>
      <point x="190" y="200" type="line" smooth="yes"/>
      <point x="190" y="336"/>
      <point x="300" y="344"/>
      <point x="300" y="460" type="curve" smooth="yes"/>
      <point x="300" y="513"/>
      <point x="263" y="550"/>
      <point x="210" y="550" type="curve" smooth="yes"/>
      <point x="177" y="550"/>
      <point x="149" y="538"/>
      <point x="131" y="517" type="curve"/>
      <point x="139" y="519"/>
      <point x="147" y="520"/>
      <point x="155" y="520" type="curve" smooth="yes"/>
      <point x="202" y="520"/>
      <point x="240" y="482"/>
      <point x="240" y="435" type="curve" smooth="yes"/>
      <point x="240" y="388"/>
      <point x="202" y="350"/>
      <point x="155" y="350" type="curve" smooth="yes"/>
      <point x="95" y="350"/>
      <point x="60" y="395"/>
      <point x="60" y="455" type="curve" smooth="yes"/>
      <point x="60" y="547"/>
      <point x="127" y="610"/>
      <point x="210" y="610" type="curve" smooth="yes"/>
      <point x="304" y="610"/>
      <point x="356" y="559"/>
    </contour>
    <contour>
      <point x="379" y="435" type="curve" smooth="yes"/>
      <point x="368" y="335"/>
      <point x="290" y="311"/>
      <point x="290" y="200" type="curve" smooth="yes"/>
      <point x="290" y="130" type="line" smooth="yes"/>
      <point x="290" y="97"/>
      <point x="325" y="65"/>
      <point x="380" y="65" type="curve" smooth="yes"/>
      <point x="435" y="65"/>
      <point x="470" y="97"/>
      <point x="470" y="130" type="curve" smooth="yes"/>
      <point x="470" y="370" type="line" smooth="yes"/>
      <point x="470" y="394"/>
      <point x="416" y="422"/>
      <point x="380" y="438" type="curve"/>
      <point x="380" y="437"/>
      <point x="379" y="436"/>
    </contour>
    <contour>
      <point x="155" y="480" type="curve" smooth="yes"/>
      <point x="130" y="480"/>
      <point x="110" y="460"/>
      <point x="110" y="435" type="curve" smooth="yes"/>
      <point x="110" y="410"/>
      <point x="130" y="390"/>
      <point x="155" y="390" type="curve" smooth="yes"/>
      <point x="180" y="390"/>
      <point x="200" y="410"/>
      <point x="200" y="435" type="curve" smooth="yes"/>
      <point x="200" y="460"/>
      <point x="180" y="480"/>
    </contour>
  </outline>
</glyph>
<glyph name="uni0E0D" format="1">
  <advance width="930"/>
  <unicode hex="0E0D"/>
  <outline>
    <component base="uni0E0D.descless"/>
    <contour>
      <point x="820" y="690" type="move" name="mark-th-base-con"/>
    </contour>
    <contour>
      <point x="555" y="-70" type="curve" smooth="yes"/>
      <point x="596" y="-70"/>
      <point x="630" y="-104"/>
      <point x="630" y="-145" type="curve" smooth="yes"/>
      <point x="630" y="-169"/>
      <point x="619" y="-190"/>
      <point x="601" y="-204" type="curve"/>
      <point x="616" y="-208"/>
      <point x="632" y="-210"/>
      <point x="650" y="-210" type="curve" smooth="yes"/>
      <point x="711" y="-210"/>
      <point x="770" y="-171"/>
      <point x="770" y="-90" type="curve"/>
      <point x="850" y="-90" type="line"/>
      <point x="850" y="-216"/>
      <point x="746" y="-270"/>
      <point x="650" y="-270" type="curve" smooth="yes"/>
      <point x="539" y="-270"/>
      <point x="480" y="-211"/>
      <point x="480" y="-145" type="curve" smooth="yes"/>
      <point x="480" y="-104"/>
      <point x="514" y="-70"/>
    </contour>
    <contour>
      <point x="555" y="-110" type="curve" smooth="yes"/>
      <point x="536" y="-110"/>
      <point x="520" y="-126"/>
      <point x="520" y="-145" type="curve" smooth="yes"/>
      <point x="520" y="-164"/>
      <point x="536" y="-180"/>
      <point x="555" y="-180" type="curve" smooth="yes"/>
      <point x="574" y="-180"/>
      <point x="590" y="-164"/>
      <point x="590" y="-145" type="curve" smooth="yes"/>
      <point x="590" y="-126"/>
      <point x="574" y="-110"/>
    </contour>
  </outline>
</glyph>
<glyph name="uni0E0E" format="1">
  <advance width="700"/>
  <unicode hex="0E0E"/>
  <outline>
    <contour>
      <point x="570" y="690" type="move" name="mark-th-base-con"/>
    </contour>
    <contour>
      <point x="570" y="-220" type="move" name="th-vowbelow"/>
    </contour>
    <contour>
      <point x="230" y="-160" type="curve" smooth="yes"/>
      <point x="271" y="-160"/>
      <point x="305" y="-145"/>
      <point x="326" y="-108" type="curve"/>
      <point x="292" y="-91"/>
      <point x="259" y="-80"/>
      <point x="230" y="-80" type="curve" smooth="yes"/>
      <point x="202" y="-80"/>
      <point x="180" y="-92"/>
      <point x="180" y="-120" type="curve" smooth="yes"/>
      <point x="180" y="-148"/>
      <point x="202" y="-160"/>
    </contour>
    <contour>
      <point x="180" y="150" type="curve" smooth="yes"/>
      <point x="152" y="150"/>
      <point x="130" y="128"/>
      <point x="130" y="100" type="curve" smooth="yes"/>
      <point x="130" y="72"/>
      <point x="152" y="50"/>
      <point x="180" y="50" type="curve" smooth="yes"/>
      <point x="208" y="50"/>
      <point x="230" y="72"/>
      <point x="230" y="100" type="curve" smooth="yes"/>
      <point x="230" y="128"/>
      <point x="208" y="150"/>
    </contour>
    <contour>
      <point x="500" y="80" type="line"/>
      <point x="500" y="400" type="line" smooth="yes"/>
      <point x="500" y="482"/>
      <point x="446" y="535"/>
      <point x="360" y="535" type="curve" smooth="yes"/>
      <point x="290" y="535"/>
      <point x="230" y="501"/>
      <point x="206" y="448" type="curve"/>
      <point x="340" y="420" type="line"/>
      <point x="340" y="400" type="line"/>
      <point x="340" y="400"/>
      <point x="270" y="393"/>
      <point x="270" y="300" type="curve" smooth="yes"/>
      <point x="270" y="260" type="line" smooth="yes"/>
      <point x="270" y="199"/>
      <point x="290" y="175"/>
      <point x="290" y="100" type="curve" smooth="yes"/>
      <point x="290" y="39"/>
      <point x="241" y="-10"/>
      <point x="180" y="-10" type="curve" smooth="yes"/>
      <point x="119" y="-10"/>
      <point x="70" y="39"/>
      <point x="70" y="100" type="curve" smooth="yes"/>
      <point x="70" y="159"/>
      <point x="117" y="208"/>
      <point x="176" y="210" type="curve"/>
      <point x="173" y="219"/>
      <point x="170" y="234"/>
      <point x="170" y="260" type="curve" smooth="yes"/>
      <point x="170" y="300" type="line" smooth="yes"/>
      <point x="170" y="352"/>
      <point x="191" y="379"/>
      <point x="211" y="394" type="curve"/>
      <point x="100" y="420" type="line"/>
      <point x="108" y="474"/>
      <point x="184" y="620"/>
      <point x="360" y="620" type="curve" smooth="yes"/>
      <point x="501" y="620"/>
      <point x="600" y="535"/>
      <point x="600" y="400" type="curve" smooth="yes"/>
      <point x="600" y="80" type="line"/>
      <point x="600" y="0" type="line"/>
      <point x="600" y="-160" type="line" smooth="yes"/>
      <point x="600" y="-198"/>
      <point x="511" y="-210"/>
      <point x="470" y="-210" type="curve"/>
      <point x="450" y="-190"/>
      <point x="418" y="-164"/>
      <point x="381" y="-140" type="curve"/>
      <point x="349" y="-190"/>
      <point x="297" y="-220"/>
      <point x="230" y="-220" type="curve" smooth="yes"/>
      <point x="169" y="-220"/>
      <point x="120" y="-181"/>
      <point x="120" y="-120" type="curve" smooth="yes"/>
      <point x="120" y="-59"/>
      <point x="169" y="-20"/>
      <point x="230" y="-20" type="curve" smooth="yes"/>
      <point x="265" y="-20"/>
      <point x="304" y="-32"/>
      <point x="343" y="-49" type="curve"/>
      <point x="344" y="-37"/>
      <point x="345" y="-24"/>
      <point x="345" y="-10" type="curve"/>
      <point x="415" y="-10" type="line"/>
      <point x="415" y="-36"/>
      <point x="412" y="-61"/>
      <point x="405" y="-84" type="curve"/>
      <point x="443" y="-107"/>
      <point x="476" y="-133"/>
      <point x="500" y="-155" type="curve"/>
      <point x="500" y="0" type="line"/>
    </contour>
  </outline>
</glyph>
<glyph name="uni0E0F" format="1">
  <advance width="700"/>
  <unicode hex="0E0F"/>
  <outline>
    <contour>
      <point x="570" y="690" type="move" name="mark-th-base-con"/>
    </contour>
    <contour>
      <point x="570" y="-220" type="move" name="th-vowbelow"/>
    </contour>
    <contour>
      <point x="226" y="-116" type="curve"/>
      <point x="205" y="-98"/>
      <point x="183" y="-85"/>
      <point x="160" y="-85" type="curve" smooth="yes"/>
      <point x="135" y="-85"/>
      <point x="115" y="-105"/>
      <point x="115" y="-130" type="curve" smooth="yes"/>
      <point x="115" y="-155"/>
      <point x="135" y="-175"/>
      <point x="160" y="-175" type="curve" smooth="yes"/>
      <point x="185" y="-175"/>
      <point x="212" y="-162"/>
    </contour>
    <contour>
      <point x="180" y="150" type="curve" smooth="yes"/>
      <point x="152" y="150"/>
      <point x="130" y="128"/>
      <point x="130" y="100" type="curve" smooth="yes"/>
      <point x="130" y="72"/>
      <point x="152" y="50"/>
      <point x="180" y="50" type="curve" smooth="yes"/>
      <point x="208" y="50"/>
      <point x="230" y="72"/>
      <point x="230" y="100" type="curve" smooth="yes"/>
      <point x="230" y="128"/>
      <point x="208" y="150"/>
    </contour>
    <contour>
      <point x="500" y="80" type="line"/>
      <point x="500" y="400" type="line" smooth="yes"/>
      <point x="500" y="482"/>
      <point x="446" y="535"/>
      <point x="360" y="535" type="curve" smooth="yes"/>
      <point x="290" y="535"/>
      <point x="230" y="501"/>
      <point x="206" y="448" type="curve"/>
      <point x="340" y="420" type="line"/>
      <point x="340" y="400" type="line"/>
      <point x="340" y="400"/>
      <point x="270" y="393"/>
      <point x="270" y="300" type="curve" smooth="yes"/>
      <point x="270" y="260" type="line" smooth="yes"/>
      <point x="270" y="199"/>
      <point x="290" y="175"/>
      <point x="290" y="100" type="curve" smooth="yes"/>
      <point x="290" y="39"/>
      <point x="241" y="-10"/>
      <point x="180" y="-10" type="curve" smooth="yes"/>
      <point x="119" y="-10"/>
      <point x="70" y="39"/>
      <point x="70" y="100" type="curve" smooth="yes"/>
      <point x="70" y="159"/>
      <point x="117" y="208"/>
      <point x="176" y="210" type="curve"/>
      <point x="173" y="219"/>
      <point x="170" y="234"/>
      <point x="170" y="260" type="curve" smooth="yes"/>
      <point x="170" y="300" type="line" smooth="yes"/>
      <point x="170" y="352"/>
      <point x="191" y="379"/>
      <point x="211" y="394" type="curve"/>
      <point x="100" y="420" type="line"/>
      <point x="108" y="474"/>
      <point x="184" y="620"/>
      <point x="360" y="620" type="curve" smooth="yes"/>
      <point x="501" y="620"/>
      <point x="600" y="535"/>
      <point x="600" y="400" type="curve" smooth="yes"/>
      <point x="600" y="80" type="line"/>
      <point x="600" y="0" type="line"/>
      <point x="600" y="-160" type="line" smooth="yes"/>
      <point x="600" y="-198"/>
      <point x="511" y="-210"/>
      <point x="470" y="-210" type="curve"/>
      <point x="397" y="-98" type="line"/>
      <point x="345" y="-210" type="line"/>
      <point x="295" y="-210" type="line"/>
      <point x="289" y="-194"/>
      <point x="277" y="-174"/>
      <point x="262" y="-154" type="curve"/>
      <point x="239" y="-194"/>
      <point x="203" y="-220"/>
      <point x="160" y="-220" type="curve" smooth="yes"/>
      <point x="110" y="-220"/>
      <point x="70" y="-180"/>
      <point x="70" y="-130" type="curve" smooth="yes"/>
      <point x="70" y="-80"/>
      <point x="110" y="-40"/>
      <point x="160" y="-40" type="curve" smooth="yes"/>
      <point x="187" y="-40"/>
      <point x="212" y="-49"/>
      <point x="234" y="-64" type="curve"/>
      <point x="235" y="-56"/>
      <point x="235" y="-48"/>
      <point x="235" y="-40" type="curve"/>
      <point x="290" y="-40" type="line"/>
      <point x="290" y="-63"/>
      <point x="287" y="-85"/>
      <point x="282" y="-106" type="curve"/>
      <point x="294" y="-120"/>
      <point x="305" y="-136"/>
      <point x="315" y="-153" type="curve"/>
      <point x="365" y="-50" type="line"/>
      <point x="419" y="-50" type="line"/>
      <point x="425" y="-50" type="line"/>
      <point x="500" y="-160" type="line"/>
      <point x="500" y="0" type="line"/>
    </contour>
  </outline>
</glyph>
<glyph name="uni0E10" format="1">
  <advance width="610"/>
  <unicode hex="0E10"/>
  <outline>
    <component base="uni0E10.descless"/>
    <contour>
      <point x="480" y="690" type="move" name="mark-th-base-con"/>
    </contour>
    <contour>
      <point x="198" y="-235" type="curve"/>
      <point x="182" y="-217"/>
      <point x="163" y="-205"/>
      <point x="140" y="-205" type="curve" smooth="yes"/>
      <point x="115" y="-205"/>
      <point x="95" y="-225"/>
      <point x="95" y="-250" type="curve" smooth="yes"/>
      <point x="95" y="-275"/>
      <point x="115" y="-295"/>
      <point x="140" y="-295" type="curve" smooth="yes"/>
      <point x="164" y="-295"/>
      <point x="186" y="-281"/>
    </contour>
    <contour>
      <point x="326" y="-223" type="line"/>
      <point x="305" y="-330" type="line"/>
      <point x="255" y="-330" type="line"/>
      <point x="246" y="-315"/>
      <point x="238" y="-299"/>
      <point x="229" y="-282" type="curve"/>
      <point x="211" y="-317"/>
      <point x="182" y="-340"/>
      <point x="140" y="-340" type="curve" smooth="yes"/>
      <point x="90" y="-340"/>
      <point x="50" y="-300"/>
      <point x="50" y="-250" type="curve" smooth="yes"/>
      <point x="50" y="-200"/>
      <point x="90" y="-160"/>
      <point x="140" y="-160" type="curve" smooth="yes"/>
      <point x="165" y="-160"/>
      <point x="186" y="-169"/>
      <point x="204" y="-184" type="curve"/>
      <point x="205" y="-176"/>
      <point x="205" y="-168"/>
      <point x="205" y="-160" type="curve"/>
      <point x="255" y="-160" type="line"/>
      <point x="255" y="-184"/>
      <point x="253" y="-209"/>
      <point x="247" y="-231" type="curve"/>
      <point x="256" y="-244"/>
      <point x="265" y="-258"/>
      <point x="273" y="-271" type="curve"/>
      <point x="290" y="-180" type="line"/>
      <point x="334" y="-180" type="line"/>
      <point x="350" y="-180" type="line"/>
      <point x="440" y="-285" type="line"/>
      <point x="440" y="-200" type="line"/>
      <point x="435" y="-200" type="line" smooth="yes"/>
      <point x="399" y="-200"/>
      <point x="370" y="-171"/>
      <point x="370" y="-135" type="curve" smooth="yes"/>
      <point x="370" y="-99"/>
      <point x="399" y="-70"/>
      <point x="435" y="-70" type="curve" smooth="yes"/>
      <point x="471" y="-70"/>
      <point x="500" y="-99"/>
      <point x="500" y="-135" type="curve" smooth="yes"/>
      <point x="500" y="-280" type="line" smooth="yes"/>
      <point x="500" y="-318"/>
      <point x="456" y="-330"/>
      <point x="415" y="-330" type="curve"/>
    </contour>
    <contour>
      <point x="435" y="-105" type="curve" smooth="yes"/>
      <point x="418" y="-105"/>
      <point x="405" y="-118"/>
      <point x="405" y="-135" type="curve" smooth="yes"/>
      <point x="405" y="-152"/>
      <point x="418" y="-165"/>
      <point x="435" y="-165" type="curve" smooth="yes"/>
      <point x="452" y="-165"/>
      <point x="465" y="-152"/>
      <point x="465" y="-135" type="curve" smooth="yes"/>
      <point x="465" y="-118"/>
      <point x="452" y="-105"/>
    </contour>
  </outline>
</glyph>
<glyph name="uni0E11" format="1">
  <advance width="770"/>
  <unicode hex="0E11"/>
  <outline>
    <contour>
      <point x="660" y="690" type="move" name="mark-th-base-con"/>
    </contour>
    <contour>
      <point x="180" y="610" type="curve" smooth="yes"/>
      <point x="222" y="610"/>
      <point x="253" y="583"/>
      <point x="272" y="552" type="curve"/>
      <point x="301" y="610" type="line"/>
      <point x="329" y="610" type="line"/>
      <point x="373" y="597"/>
      <point x="409" y="564"/>
      <point x="423" y="512" type="curve"/>
      <point x="452" y="565"/>
      <point x="493" y="610"/>
      <point x="545" y="610" type="curve" smooth="yes"/>
      <point x="623" y="610"/>
      <point x="680" y="562"/>
      <point x="680" y="410" type="curve" smooth="yes"/>
      <point x="680" y="0" type="line"/>
      <point x="580" y="0" type="line"/>
      <point x="580" y="410" type="line" smooth="yes"/>
      <point x="580" y="471"/>
      <point x="576" y="510"/>
      <point x="530" y="510" type="curve" smooth="yes"/>
      <point x="503" y="510"/>
      <point x="457" y="479"/>
      <point x="428" y="428" type="curve"/>
      <point x="425" y="409"/>
      <point x="420" y="392"/>
      <point x="415" y="380" type="curve" smooth="yes"/>
      <point x="390" y="319"/>
      <point x="350" y="304"/>
      <point x="350" y="200" type="curve" smooth="yes"/>
      <point x="350" y="0" type="line"/>
      <point x="240" y="0" type="line"/>
      <point x="240" y="200" type="line" smooth="yes"/>
      <point x="240" y="336"/>
      <point x="350" y="358"/>
      <point x="350" y="460" type="curve" smooth="yes"/>
      <point x="350" y="495"/>
      <point x="346" y="523"/>
      <point x="323" y="550" type="curve"/>
      <point x="290" y="490" type="line"/>
      <point x="240" y="490" type="line"/>
      <point x="233" y="522"/>
      <point x="213" y="555"/>
      <point x="180" y="555" type="curve" smooth="yes"/>
      <point x="137" y="555"/>
      <point x="118" y="516"/>
      <point x="115" y="470" type="curve"/>
      <point x="130" y="482"/>
      <point x="149" y="490"/>
      <point x="170" y="490" type="curve" smooth="yes"/>
      <point x="217" y="490"/>
      <point x="255" y="452"/>
      <point x="255" y="405" type="curve" smooth="yes"/>
      <point x="255" y="358"/>
      <point x="217" y="320"/>
      <point x="170" y="320" type="curve" smooth="yes"/>
      <point x="99" y="320"/>
      <point x="60" y="382"/>
      <point x="60" y="460" type="curve" smooth="yes"/>
      <point x="60" y="513"/>
      <point x="92" y="610"/>
    </contour>
    <contour>
      <point x="170" y="450" type="curve" smooth="yes"/>
      <point x="145" y="450"/>
      <point x="125" y="430"/>
      <point x="125" y="405" type="curve" smooth="yes"/>
      <point x="125" y="380"/>
      <point x="145" y="360"/>
      <point x="170" y="360" type="curve" smooth="yes"/>
      <point x="195" y="360"/>
      <point x="215" y="380"/>
      <point x="215" y="405" type="curve" smooth="yes"/>
      <point x="215" y="430"/>
      <point x="195" y="450"/>
    </contour>
  </outline>
</glyph>
<glyph name="uni0E13" format="1">
  <advance width="950"/>
  <unicode hex="0E13"/>
  <outline>
    <contour>
      <point x="830" y="690" type="move" name="mark-th-base-con"/>
    </contour>
    <contour>
      <point x="765" y="145" type="curve" smooth="yes"/>
      <point x="737" y="145"/>
      <point x="715" y="123"/>
      <point x="715" y="95" type="curve" smooth="yes"/>
      <point x="715" y="67"/>
      <point x="737" y="45"/>
      <point x="765" y="45" type="curve" smooth="yes"/>
      <point x="793" y="45"/>
      <point x="815" y="67"/>
      <point x="815" y="95" type="curve" smooth="yes"/>
      <point x="815" y="123"/>
      <point x="793" y="145"/>
    </contour>
    <contour>
      <point x="240" y="150" type="curve" smooth="yes"/>
      <point x="212" y="150"/>
      <point x="190" y="128"/>
      <point x="190" y="100" type="curve" smooth="yes"/>
      <point x="190" y="72"/>
      <point x="212" y="50"/>
      <point x="240" y="50" type="curve" smooth="yes"/>
      <point x="268" y="50"/>
      <point x="290" y="72"/>
      <point x="290" y="100" type="curve" smooth="yes"/>
      <point x="290" y="128"/>
      <point x="268" y="150"/>
    </contour>
    <contour>
      <point x="240" y="210" type="line" smooth="yes"/>
      <point x="301" y="210"/>
      <point x="350" y="161"/>
      <point x="350" y="100" type="curve" smooth="yes"/>
      <point x="350" y="39"/>
      <point x="301" y="-10"/>
      <point x="240" y="-10" type="curve" smooth="yes"/>
      <point x="179" y="-10"/>
      <point x="130" y="39"/>
      <point x="130" y="100" type="curve" smooth="yes"/>
      <point x="130" y="290" type="line" smooth="yes"/>
      <point x="130" y="350"/>
      <point x="155" y="380"/>
      <point x="179" y="395" type="curve"/>
      <point x="80" y="420" type="line"/>
      <point x="88" y="474"/>
      <point x="164" y="620"/>
      <point x="340" y="620" type="curve" smooth="yes"/>
      <point x="481" y="620"/>
      <point x="580" y="535"/>
      <point x="580" y="400" type="curve" smooth="yes"/>
      <point x="580" y="130" type="line"/>
      <point x="580" y="84" type="line"/>
      <point x="614" y="138"/>
      <point x="673" y="195"/>
      <point x="740" y="211" type="curve"/>
      <point x="740" y="600" type="line"/>
      <point x="840" y="600" type="line"/>
      <point x="840" y="210" type="line"/>
      <point x="818" y="197" type="line"/>
      <point x="855" y="178"/>
      <point x="880" y="139"/>
      <point x="880" y="95" type="curve" smooth="yes"/>
      <point x="880" y="31"/>
      <point x="829" y="-20"/>
      <point x="765" y="-20" type="curve" smooth="yes"/>
      <point x="704" y="-20"/>
      <point x="653" y="28"/>
      <point x="650" y="89" type="curve"/>
      <point x="610" y="43"/>
      <point x="590" y="-10"/>
      <point x="590" y="-10" type="curve"/>
      <point x="527" y="-10"/>
      <point x="480" y="15"/>
      <point x="480" y="60" type="curve" smooth="yes"/>
      <point x="480" y="130" type="line"/>
      <point x="480" y="400" type="line" smooth="yes"/>
      <point x="480" y="482"/>
      <point x="426" y="535"/>
      <point x="340" y="535" type="curve" smooth="yes"/>
      <point x="270" y="535"/>
      <point x="210" y="501"/>
      <point x="186" y="447" type="curve"/>
      <point x="310" y="420" type="line"/>
      <point x="310" y="400" type="line"/>
      <point x="310" y="400"/>
      <point x="230" y="396"/>
      <point x="230" y="290" type="curve" smooth="yes"/>
      <point x="230" y="210" type="line"/>
    </contour>
  </outline>
</glyph>
<glyph name="uni0E18" format="1">
  <advance width="620"/>
  <unicode hex="0E18"/>
  <outline>
    <contour>
      <point x="470" y="690" type="move" name="mark-th-base-con"/>
    </contour>
    <contour>
      <point x="80" y="400" type="curve"/>
      <point x="80" y="535"/>
      <point x="190" y="620"/>
      <point x="310" y="620" type="curve" smooth="yes"/>
      <point x="394" y="620"/>
      <point x="435" y="590"/>
      <point x="470" y="560" type="curve"/>
      <point x="478" y="574"/>
      <point x="509" y="610"/>
      <point x="540" y="610" type="curve"/>
      <point x="540" y="540" type="line"/>
      <point x="509" y="540"/>
      <point x="482" y="505"/>
      <point x="470" y="485" type="curve"/>
      <point x="432" y="523"/>
      <point x="384" y="550"/>
      <point x="310" y="550" type="curve" smooth="yes"/>
      <point x="232" y="550"/>
      <point x="183" y="497"/>
      <point x="180" y="445" type="curve"/>
      <point x="373" y="445"/>
      <point x="520" y="436"/>
      <point x="520" y="320" type="curve" smooth="yes"/>
      <point x="520" y="150" type="line" smooth="yes"/>
      <point x="520" y="26"/>
      <point x="412" y="-20"/>
      <point x="310" y="-20" type="curve" smooth="yes"/>
      <point x="208" y="-20"/>
      <point x="100" y="26"/>
      <point x="100" y="150" type="curve" smooth="yes"/>
      <point x="100" y="310" type="line"/>
      <point x="200" y="310" type="line"/>
      <point x="200" y="150" type="line" smooth="yes"/>
      <point x="200" y="95"/>
      <point x="248" y="70"/>
      <point x="310" y="70" type="curve" smooth="yes"/>
      <point x="372" y="70"/>
      <point x="420" y="95"/>
      <point x="420" y="150" type="curve" smooth="yes"/>
      <point x="420" y="320" type="line" smooth="yes"/>
      <point x="420" y="396"/>
      <point x="317" y="400"/>
    </contour>
  </outline>
</glyph>
<glyph name="uni0E21" format="1">
  <advance width="670"/>
  <unicode hex="0E21"/>
  <outline>
    <contour>
      <point x="560" y="690" type="move" name="mark-th-base-con"/>
    </contour>
    <contour>
      <point x="170" y="550" type="curve" smooth="yes"/>
      <point x="142" y="550"/>
      <point x="120" y="528"/>
      <point x="120" y="500" type="curve" smooth="yes"/>
      <point x="120" y="472"/>
      <point x="142" y="450"/>
      <point x="170" y="450" type="curve" smooth="yes"/>
      <point x="198" y="450"/>
      <point x="220" y="472"/>
      <point x="220" y="500" type="curve" smooth="yes"/>
      <point x="220" y="528"/>
      <point x="198" y="550"/>
    </contour>
    <contour>
      <point x="470" y="600" type="line"/>
      <point x="570" y="600" type="line"/>
      <point x="570" y="60" type="line" smooth="yes"/>
      <point x="570" y="15"/>
      <point x="513" y="-10"/>
      <point x="450" y="-10" type="curve"/>
      <point x="450" y="-10"/>
      <point x="403" y="80"/>
      <point x="289" y="113" type="curve"/>
      <point x="290" y="107"/>
      <point x="290" y="101"/>
      <point x="290" y="95" type="curve" smooth="yes"/>
      <point x="290" y="31"/>
      <point x="239" y="-20"/>
      <point x="175" y="-20" type="curve" smooth="yes"/>
      <point x="111" y="-20"/>
      <point x="60" y="31"/>
      <point x="60" y="95" type="curve" smooth="yes"/>
      <point x="60" y="159"/>
      <point x="111" y="210"/>
      <point x="175" y="210" type="curve" smooth="yes"/>
      <point x="180" y="210" type="line"/>
      <point x="180" y="390" type="line"/>
      <point x="170" y="390" type="line" smooth="yes"/>
      <point x="109" y="390"/>
      <point x="60" y="439"/>
      <point x="60" y="500" type="curve" smooth="yes"/>
      <point x="60" y="561"/>
      <point x="109" y="610"/>
      <point x="170" y="610" type="curve" smooth="yes"/>
      <point x="231" y="610"/>
      <point x="280" y="561"/>
      <point x="280" y="500" type="curve" smooth="yes"/>
      <point x="280" y="197" type="line"/>
      <point x="364" y="178"/>
      <point x="430" y="134"/>
      <point x="470" y="90" type="curve"/>
    </contour>
    <contour>
      <point x="175" y="145" type="curve" smooth="yes"/>
      <point x="147" y="145"/>
      <point x="125" y="123"/>
      <point x="125" y="95" type="curve" smooth="yes"/>
      <point x="125" y="67"/>
      <point x="147" y="45"/>
      <point x="175" y="45" type="curve" smooth="yes"/>
      <point x="203" y="45"/>
      <point x="225" y="67"/>
      <point x="225" y="95" type="curve" smooth="yes"/>
      <point x="225" y="123"/>
      <point x="203" y="145"/>
    </contour>
  </outline>
</glyph>
<glyph name="uni0E22" format="1">
  <advance width="690"/>
  <unicode hex="0E22"/>
  <outline>
    <contour>
      <point x="590" y="690" type="move" name="mark-th-base-con"/>
    </contour>
    <contour>
      <point x="250" y="550" type="curve" smooth="yes"/>
      <point x="222" y="550"/>
      <point x="200" y="528"/>
      <point x="200" y="500" type="curve" smooth="yes"/>
      <point x="200" y="472"/>
      <point x="222" y="450"/>
      <point x="250" y="450" type="curve" smooth="yes"/>
      <point x="278" y="450"/>
      <point x="300" y="472"/>
      <point x="300" y="500" type="curve" smooth="yes"/>
      <point x="300" y="528"/>
      <point x="278" y="550"/>
    </contour>
    <contour>
      <point x="500" y="600" type="line"/>
      <point x="600" y="600" type="line"/>
      <point x="600" y="80" type="line" smooth="yes"/>
      <point x="600" y="57"/>
      <point x="479" y="-20"/>
      <point x="340" y="-20" type="curve" smooth="yes"/>
      <point x="199" y="-20"/>
      <point x="80" y="44"/>
      <point x="80" y="170" type="curve" smooth="yes"/>
      <point x="80" y="232"/>
      <point x="109" y="271"/>
      <point x="155" y="295" type="curve"/>
      <point x="105" y="326"/>
      <point x="80" y="376"/>
      <point x="80" y="440" type="curve" smooth="yes"/>
      <point x="80" y="543"/>
      <point x="144" y="610"/>
      <point x="230" y="610" type="curve" smooth="yes"/>
      <point x="314" y="610"/>
      <point x="350" y="548"/>
      <point x="350" y="500" type="curve" smooth="yes"/>
      <point x="350" y="445"/>
      <point x="305" y="400"/>
      <point x="250" y="400" type="curve" smooth="yes"/>
      <point x="211" y="400"/>
      <point x="177" y="422"/>
      <point x="161" y="455" type="curve"/>
      <point x="160" y="450"/>
      <point x="160" y="445"/>
      <point x="160" y="440" type="curve" smooth="yes"/>
      <point x="160" y="357"/>
      <point x="237" y="325"/>
      <point x="330" y="325" type="curve"/>
      <point x="330" y="255" type="line"/>
      <point x="220" y="255"/>
      <point x="180" y="221"/>
      <point x="180" y="170" type="curve" smooth="yes"/>
      <point x="180" y="95"/>
      <point x="264" y="65"/>
      <point x="340" y="65" type="curve" smooth="yes"/>
      <point x="418" y="65"/>
      <point x="484" y="95"/>
      <point x="500" y="110" type="curve"/>
    </contour>
  </outline>
</glyph>
<glyph name="uni0E23" format="1">
  <advance width="600"/>
  <unicode hex="0E23"/>
  <outline>
    <contour>
      <point x="420" y="690" type="move" name="mark-th-base-con"/>
    </contour>
    <contour>
      <point x="50" y="400" type="curve"/>
      <point x="50" y="535"/>
      <point x="160" y="620"/>
      <point x="280" y="620" type="curve" smooth="yes"/>
      <point x="364" y="620"/>
      <point x="405" y="590"/>
      <point x="440" y="560" type="curve"/>
      <point x="448" y="574"/>
      <point x="479" y="610"/>
      <point x="510" y="610" type="curve"/>
      <point x="510" y="540" type="line"/>
      <point x="479" y="540"/>
      <point x="452" y="505"/>
      <point x="440" y="485" type="curve"/>
      <point x="402" y="523"/>
      <point x="354" y="550"/>
      <point x="280" y="550" type="curve" smooth="yes"/>
      <point x="202" y="550"/>
      <point x="153" y="497"/>
      <point x="150" y="445" type="curve"/>
      <point x="340" y="445"/>
      <point x="450" y="436"/>
      <point x="450" y="320" type="curve" smooth="yes"/>
      <point x="450" y="110" type="line" smooth="yes"/>
      <point x="450" y="44"/>
      <point x="396" y="-10"/>
      <point x="330" y="-10" type="curve" smooth="yes"/>
      <point x="264" y="-10"/>
      <point x="210" y="44"/>
      <point x="210" y="110" type="curve" smooth="yes"/>
      <point x="210" y="176"/>
      <point x="264" y="230"/>
      <point x="330" y="230" type="curve" smooth="yes"/>
      <point x="337" y="230"/>
      <point x="343" y="229"/>
      <point x="350" y="228" type="curve"/>
      <point x="350" y="320" type="line" smooth="yes"/>
      <point x="350" y="396"/>
      <point x="287" y="400"/>
    </contour>
    <contour>
      <point x="330" y="165" type="curve" smooth="yes"/>
      <point x="300" y="165"/>
      <point x="275" y="140"/>
      <point x="275" y="110" type="curve" smooth="yes"/>
      <point x="275" y="80"/>
      <point x="300" y="55"/>
      <point x="330" y="55" type="curve" smooth="yes"/>
      <point x="360" y="55"/>
      <point x="385" y="80"/>
      <point x="385" y="110" type="curve" smooth="yes"/>
      <point x="385" y="140"/>
      <point x="360" y="165"/>
    </contour>
  </outline>
</glyph>
<glyph name="uni0E24" format="1">
  <advance width="690"/>
  <unicode hex="0E24"/>
  <outline>
    <contour>
      <point x="570" y="690" type="move" name="mark-th-base-con"/>
    </contour>
    <contour>
      <point x="230" y="210" type="line" smooth="yes"/>
      <point x="291" y="210"/>
      <point x="340" y="161"/>
      <point x="340" y="100" type="curve" smooth="yes"/>
      <point x="340" y="39"/>
      <point x="291" y="-10"/>
      <point x="230" y="-10" type="curve" smooth="yes"/>
      <point x="169" y="-10"/>
      <point x="120" y="39"/>
      <point x="120" y="100" type="curve" smooth="yes"/>
      <point x="120" y="290" type="line" smooth="yes"/>
      <point x="120" y="350"/>
      <point x="145" y="380"/>
      <point x="169" y="395" type="curve"/>
      <point x="70" y="420" type="line"/>
      <point x="78" y="474"/>
      <point x="164" y="620"/>
      <point x="340" y="620" type="curve" smooth="yes"/>
      <point x="481" y="620"/>
      <point x="590" y="535"/>
      <point x="590" y="400" type="curve" smooth="yes"/>
      <point x="590" y="-240" type="line"/>
      <point x="490" y="-240" type="line"/>
      <point x="490" y="400" type="line" smooth="yes"/>
      <point x="490" y="482"/>
      <point x="426" y="535"/>
      <point x="340" y="535" type="curve" smooth="yes"/>
      <point x="270" y="535"/>
      <point x="200" y="501"/>
      <point x="176" y="447" type="curve"/>
      <point x="300" y="420" type="line"/>
      <point x="300" y="400" type="line"/>
      <point x="300" y="400"/>
      <point x="220" y="396"/>
      <point x="220" y="290" type="curve" smooth="yes"/>
      <point x="220" y="210" type="line"/>
    </contour>
    <contour>
      <point x="230" y="150" type="curve" smooth="yes"/>
      <point x="202" y="150"/>
      <point x="180" y="128"/>
      <point x="180" y="100" type="curve" smooth="yes"/>
      <point x="180" y="72"/>
      <point x="202" y="50"/>
      <point x="230" y="50" type="curve" smooth="yes"/>
      <point x="258" y="50"/>
      <point x="280" y="72"/>
      <point x="280" y="100" type="curve" smooth="yes"/>
      <point x="280" y="128"/>
      <point x="258" y="150"/>
    </contour>
  </outline>
</glyph>
<glyph name="uni0E26" format="1">
  <advance width="710"/>
  <unicode hex="0E26"/>
  <outline>
    <contour>
      <point x="590" y="690" type="move" name="mark-th-base-con"/>
    </contour>
    <contour>
      <point x="610" y="400" type="curve" smooth="yes"/>
      <point x="610" y="-240" type="line"/>
      <point x="510" y="-240" type="line"/>
      <point x="510" y="400" type="line" smooth="yes"/>
      <point x="510" y="482"/>
      <point x="446" y="535"/>
      <point x="360" y="535" type="curve" smooth="yes"/>
      <point x="290" y="535"/>
      <point x="220" y="501"/>
      <point x="196" y="448" type="curve"/>
      <point x="330" y="420" type="line"/>
      <point x="330" y="400" type="line"/>
      <point x="330" y="400"/>
      <point x="260" y="393"/>
      <point x="260" y="300" type="curve" smooth="yes"/>
      <point x="260" y="260" type="line" smooth="yes"/>
      <point x="260" y="199"/>
      <point x="280" y="175"/>
      <point x="280" y="100" type="curve" smooth="yes"/>
      <point x="280" y="39"/>
      <point x="231" y="-10"/>
      <point x="170" y="-10" type="curve" smooth="yes"/>
      <point x="109" y="-10"/>
      <point x="60" y="39"/>
      <point x="60" y="100" type="curve" smooth="yes"/>
      <point x="60" y="159"/>
      <point x="107" y="208"/>
      <point x="166" y="210" type="curve"/>
      <point x="163" y="219"/>
      <point x="160" y="234"/>
      <point x="160" y="260" type="curve" smooth="yes"/>
      <point x="160" y="300" type="line" smooth="yes"/>
      <point x="160" y="352"/>
      <point x="181" y="379"/>
      <point x="201" y="394" type="curve"/>
      <point x="90" y="420" type="line"/>
      <point x="98" y="474"/>
      <point x="184" y="620"/>
      <point x="360" y="620" type="curve" smooth="yes"/>
      <point x="501" y="620"/>
      <point x="610" y="535"/>
    </contour>
    <contour>
      <point x="170" y="150" type="curve" smooth="yes"/>
      <point x="142" y="150"/>
      <point x="120" y="128"/>
      <point x="120" y="100" type="curve" smooth="yes"/>
      <point x="120" y="72"/>
      <point x="142" y="50"/>
      <point x="170" y="50" type="curve" smooth="yes"/>
      <point x="198" y="50"/>
      <point x="220" y="72"/>
      <point x="220" y="100" type="curve" smooth="yes"/>
      <point x="220" y="128"/>
      <point x="198" y="150"/>
    </contour>
  </outline>
</glyph>
<glyph name="uni0E29" format="1">
  <advance width="780"/>
  <unicode hex="0E29"/>
  <outline>
    <contour>
      <point x="610" y="690" type="move" name="mark-th-base-con"/>
    </contour>
    <contour>
      <point x="160" y="550" type="curve" smooth="yes"/>
      <point x="132" y="550"/>
      <point x="110" y="528"/>
      <point x="110" y="500" type="curve" smooth="yes"/>
      <point x="110" y="472"/>
      <point x="132" y="450"/>
      <point x="160" y="450" type="curve" smooth="yes"/>
      <point x="188" y="450"/>
      <point x="210" y="472"/>
      <point x="210" y="500" type="curve" smooth="yes"/>
      <point x="210" y="528"/>
      <point x="188" y="550"/>
    </contour>
    <contour>
      <point x="405" y="435" type="curve" smooth="yes"/>
      <point x="446" y="435"/>
      <point x="480" y="401"/>
      <point x="480" y="360" type="curve" smooth="yes"/>
      <point x="480" y="324"/>
      <point x="455" y="294"/>
      <point x="421" y="287" type="curve"/>
      <point x="442" y="261"/>
      <point x="479" y="251"/>
      <point x="530" y="250" type="curve"/>
      <point x="530" y="600" type="line"/>
      <point x="630" y="600" type="line"/>
      <point x="630" y="273" type="line"/>
      <point x="661" y="293"/>
      <point x="682" y="327"/>
      <point x="685" y="380" type="curve"/>
      <point x="760" y="380" type="line"/>
      <point x="759" y="305"/>
      <point x="707" y="238"/>
      <point x="630" y="208" type="curve"/>
      <point x="630" y="170" type="line" smooth="yes"/>
      <point x="630" y="34"/>
      <point x="532" y="-20"/>
      <point x="400" y="-20" type="curve" smooth="yes"/>
      <point x="268" y="-20"/>
      <point x="170" y="34"/>
      <point x="170" y="170" type="curve" smooth="yes"/>
      <point x="170" y="390" type="line"/>
      <point x="160" y="390" type="line" smooth="yes"/>
      <point x="99" y="390"/>
      <point x="50" y="439"/>
      <point x="50" y="500" type="curve" smooth="yes"/>
      <point x="50" y="561"/>
      <point x="99" y="610"/>
      <point x="160" y="610" type="curve" smooth="yes"/>
      <point x="221" y="610"/>
      <point x="270" y="561"/>
      <point x="270" y="500" type="curve" smooth="yes"/>
      <point x="270" y="170" type="line" smooth="yes"/>
      <point x="270" y="105"/>
      <point x="321" y="70"/>
      <point x="400" y="70" type="curve" smooth="yes"/>
      <point x="479" y="70"/>
      <point x="530" y="105"/>
      <point x="530" y="170" type="curve" smooth="yes"/>
      <point x="530" y="190" type="line"/>
      <point x="462" y="192"/>
      <point x="330" y="236"/>
      <point x="330" y="360" type="curve" smooth="yes"/>
      <point x="330" y="401"/>
      <point x="364" y="435"/>
    </contour>
    <contour>
      <point x="405" y="400" type="curve" smooth="yes"/>
      <point x="383" y="400"/>
      <point x="365" y="382"/>
      <point x="365" y="360" type="curve" smooth="yes"/>
      <point x="365" y="338"/>
      <point x="383" y="320"/>
      <point x="405" y="320" type="curve" smooth="yes"/>
      <point x="427" y="320"/>
      <point x="445" y="338"/>
      <point x="445" y="360" type="curve" smooth="yes"/>
      <point x="445" y="382"/>
      <point x="427" y="400"/>
    </contour>
  </outline>
</glyph>
<glyph name="uni0E2B" format="1">
  <advance width="710"/>
  <unicode hex="0E2B"/>
  <outline>
    <contour>
      <point x="570" y="690" type="move" name="mark-th-base-con"/>
    </contour>
    <contour>
      <point x="160" y="550" type="curve" smooth="yes"/>
      <point x="132" y="550"/>
      <point x="110" y="528"/>
      <point x="110" y="500" type="curve" smooth="yes"/>
      <point x="110" y="472"/>
      <point x="132" y="450"/>
      <point x="160" y="450" type="curve" smooth="yes"/>
      <point x="188" y="450"/>
      <point x="210" y="472"/>
      <point x="210" y="500" type="curve" smooth="yes"/>
      <point x="210" y="528"/>
      <point x="188" y="550"/>
    </contour>
    <contour>
      <point x="530" y="610" type="curve" smooth="yes"/>
      <point x="591" y="610"/>
      <point x="640" y="561"/>
      <point x="640" y="500" type="curve" smooth="yes"/>
      <point x="640" y="457"/>
      <point x="616" y="420"/>
      <point x="580" y="402" type="curve"/>
      <point x="600" y="390" type="line"/>
      <point x="600" y="0" type="line"/>
      <point x="500" y="0" type="line"/>
      <point x="500" y="362" type="line"/>
      <point x="413" y="336"/>
      <point x="280" y="160"/>
      <point x="280" y="87" type="curve" smooth="yes"/>
      <point x="280" y="0" type="line"/>
      <point x="170" y="0" type="line"/>
      <point x="170" y="390" type="line"/>
      <point x="160" y="390" type="line" smooth="yes"/>
      <point x="99" y="390"/>
      <point x="50" y="439"/>
      <point x="50" y="500" type="curve" smooth="yes"/>
      <point x="50" y="561"/>
      <point x="99" y="610"/>
      <point x="160" y="610" type="curve" smooth="yes"/>
      <point x="221" y="610"/>
      <point x="270" y="561"/>
      <point x="270" y="500" type="curve" smooth="yes"/>
      <point x="270" y="241" type="line"/>
      <point x="296" y="286"/>
      <point x="378" y="380"/>
      <point x="462" y="413" type="curve"/>
      <point x="437" y="433"/>
      <point x="420" y="465"/>
      <point x="420" y="500" type="curve" smooth="yes"/>
      <point x="420" y="561"/>
      <point x="469" y="610"/>
    </contour>
    <contour>
      <point x="530" y="550" type="curve" smooth="yes"/>
      <point x="502" y="550"/>
      <point x="480" y="528"/>
      <point x="480" y="500" type="curve" smooth="yes"/>
      <point x="480" y="472"/>
      <point x="502" y="450"/>
      <point x="530" y="450" type="curve" smooth="yes"/>
      <point x="558" y="450"/>
      <point x="580" y="472"/>
      <point x="580" y="500" type="curve" smooth="yes"/>
      <point x="580" y="528"/>
      <point x="558" y="550"/>
    </contour>
  </outline>
</glyph>
<glyph name="uni0E2C" format="1">
  <advance width="770"/>
  <unicode hex="0E2C"/>
  <outline>
    <contour>
      <point x="630" y="690" type="move" name="mark-th-base-con"/>
    </contour>
    <contour>
      <point x="160" y="610" type="curve" smooth="yes"/>
      <point x="221" y="610"/>
      <point x="270" y="561"/>
      <point x="270" y="500" type="curve" smooth="yes"/>
      <point x="270" y="80" type="line"/>
      <point x="389" y="490" type="line"/>
      <point x="451" y="490" type="line"/>
      <point x="570" y="80" type="line"/>
      <point x="570" y="450" type="line"/>
      <point x="515" y="450"/>
      <point x="470" y="495"/>
      <point x="470" y="550" type="curve" smooth="yes"/>
      <point x="470" y="605"/>
      <point x="515" y="650"/>
      <point x="570" y="650" type="curve" smooth="yes"/>
      <point x="619" y="650"/>
      <point x="660" y="614"/>
      <point x="669" y="567" type="curve"/>
      <point x="676" y="594"/>
      <point x="680" y="628"/>
      <point x="680" y="670" type="curve"/>
      <point x="750" y="670" type="line"/>
      <point x="750" y="586"/>
      <point x="720" y="516"/>
      <point x="670" y="480" type="curve"/>
      <point x="670" y="60" type="line" smooth="yes"/>
      <point x="670" y="37"/>
      <point x="657" y="17"/>
      <point x="630" y="5" type="curve" smooth="yes"/>
      <point x="603" y="-7"/>
      <point x="561" y="-10"/>
      <point x="530" y="-10" type="curve"/>
      <point x="420" y="380" type="line"/>
      <point x="310" y="-10" type="line"/>
      <point x="279" y="-10"/>
      <point x="237" y="-7"/>
      <point x="210" y="5" type="curve" smooth="yes"/>
      <point x="183" y="17"/>
      <point x="170" y="37"/>
      <point x="170" y="60" type="curve" smooth="yes"/>
      <point x="170" y="390" type="line"/>
      <point x="160" y="390" type="line" smooth="yes"/>
      <point x="99" y="390"/>
      <point x="50" y="439"/>
      <point x="50" y="500" type="curve" smooth="yes"/>
      <point x="50" y="561"/>
      <point x="99" y="610"/>
    </contour>
    <contour>
      <point x="160" y="550" type="curve" smooth="yes"/>
      <point x="132" y="550"/>
      <point x="110" y="528"/>
      <point x="110" y="500" type="curve" smooth="yes"/>
      <point x="110" y="472"/>
      <point x="132" y="450"/>
      <point x="160" y="450" type="curve" smooth="yes"/>
      <point x="188" y="450"/>
      <point x="210" y="472"/>
      <point x="210" y="500" type="curve" smooth="yes"/>
      <point x="210" y="528"/>
      <point x="188" y="550"/>
    </contour>
    <contour>
      <point x="570" y="600" type="curve" smooth="yes"/>
      <point x="542" y="600"/>
      <point x="520" y="578"/>
      <point x="520" y="550" type="curve" smooth="yes"/>
      <point x="520" y="522"/>
      <point x="542" y="500"/>
      <point x="570" y="500" type="curve" smooth="yes"/>
      <point x="598" y="500"/>
      <point x="620" y="522"/>
      <point x="620" y="550" type="curve" smooth="yes"/>
      <point x="620" y="578"/>
      <point x="598" y="600"/>
    </contour>
  </outline>
</glyph>
<glyph name="uni0E2E" format="1">
  <advance width="680"/>
  <unicode hex="0E2E"/>
  <outline>
    <contour>
      <point x="510" y="690" type="move" name="mark-th-base-con"/>
    </contour>
    <contour>
      <point x="195" y="325" type="curve" smooth="yes"/>
      <point x="167" y="325"/>
      <point x="145" y="303"/>
      <point x="145" y="275" type="curve" smooth="yes"/>
      <point x="145" y="247"/>
      <point x="167" y="225"/>
      <point x="195" y="225" type="curve" smooth="yes"/>
      <point x="223" y="225"/>
      <point x="245" y="247"/>
      <point x="245" y="275" type="curve" smooth="yes"/>
      <point x="245" y="303"/>
      <point x="223" y="325"/>
    </contour>
    <contour>
      <point x="195" y="380" type="curve" smooth="yes"/>
      <point x="253" y="380"/>
      <point x="300" y="333"/>
      <point x="300" y="275" type="curve" smooth="yes"/>
      <point x="300" y="217"/>
      <point x="253" y="170"/>
      <point x="195" y="170" type="curve" smooth="yes"/>
      <point x="190" y="170" type="line"/>
      <point x="190" y="160" type="line" smooth="yes"/>
      <point x="190" y="95"/>
      <point x="266" y="70"/>
      <point x="345" y="70" type="curve" smooth="yes"/>
      <point x="424" y="70"/>
      <point x="480" y="105"/>
      <point x="480" y="170" type="curve" smooth="yes"/>
      <point x="480" y="420" type="line" smooth="yes"/>
      <point x="480" y="481"/>
      <point x="423" y="535"/>
      <point x="325" y="535" type="curve" smooth="yes"/>
      <point x="227" y="535"/>
      <point x="170" y="481"/>
      <point x="170" y="420" type="curve"/>
      <point x="70" y="420" type="line"/>
      <point x="70" y="535"/>
      <point x="174" y="620"/>
      <point x="325" y="620" type="curve" smooth="yes"/>
      <point x="389" y="620"/>
      <point x="453" y="605"/>
      <point x="493" y="579" type="curve"/>
      <point x="526" y="626"/>
      <point x="569" y="670"/>
      <point x="640" y="670" type="curve"/>
      <point x="660" y="580" type="line"/>
      <point x="609" y="580"/>
      <point x="568" y="561"/>
      <point x="543" y="532" type="curve"/>
      <point x="567" y="501"/>
      <point x="580" y="462"/>
      <point x="580" y="420" type="curve" smooth="yes"/>
      <point x="580" y="170" type="line" smooth="yes"/>
      <point x="580" y="34"/>
      <point x="477" y="-20"/>
      <point x="345" y="-20" type="curve" smooth="yes"/>
      <point x="213" y="-20"/>
      <point x="90" y="24"/>
      <point x="90" y="160" type="curve" smooth="yes"/>
      <point x="90" y="275" type="line" smooth="yes"/>
      <point x="90" y="333"/>
      <point x="137" y="380"/>
    </contour>
  </outline>
</glyph>
<glyph name="uni0E36" format="1">
  <advance width="0"/>
  <unicode hex="0E36"/>
  <outline>
    <contour>
      <point x="0" y="0" type="move" name="mkmk-th-vow-tone"/>
    </contour>
    <contour>
      <point x="-100" y="690" type="move" name="_mark-th-asc-con"/>
    </contour>
    <contour>
      <point x="-471" y="796" type="curve"/>
      <point x="-387" y="794"/>
      <point x="-288" y="778"/>
      <point x="-176" y="728" type="curve"/>
      <point x="-217" y="798"/>
      <point x="-273" y="860"/>
      <point x="-370" y="860" type="curve" smooth="yes"/>
      <point x="-422" y="860"/>
      <point x="-460" y="836"/>
    </contour>
    <contour>
      <point x="-190" y="960" type="curve" smooth="yes"/>
      <point x="-140" y="960"/>
      <point x="-100" y="920"/>
      <point x="-100" y="870" type="curve" smooth="yes"/>
      <point x="-100" y="836"/>
      <point x="-119" y="807"/>
      <point x="-146" y="791" type="curve"/>
      <point x="-122" y="747"/>
      <point x="-110" y="702"/>
      <point x="-110" y="670" type="curve"/>
      <point x="-296" y="760"/>
      <point x="-439" y="770"/>
      <point x="-560" y="770" type="curve"/>
      <point x="-560" y="829"/>
      <point x="-502" y="930"/>
      <point x="-370" y="930" type="curve" smooth="yes"/>
      <point x="-333" y="930"/>
      <point x="-300" y="922"/>
      <point x="-271" y="910" type="curve"/>
      <point x="-256" y="940"/>
      <point x="-225" y="960"/>
    </contour>
    <contour>
      <point x="-190" y="915" type="curve" smooth="yes"/>
      <point x="-215" y="915"/>
      <point x="-235" y="895"/>
      <point x="-235" y="870" type="curve" smooth="yes"/>
      <point x="-235" y="845"/>
      <point x="-215" y="825"/>
      <point x="-190" y="825" type="curve" smooth="yes"/>
      <point x="-165" y="825"/>
      <point x="-145" y="845"/>
      <point x="-145" y="870" type="curve" smooth="yes"/>
      <point x="-145" y="895"/>
      <point x="-165" y="915"/>
    </contour>
  </outline>
</glyph>
<glyph name="uni0E37" format="1">
  <advance width="0"/>
  <unicode hex="0E37"/>
  <outline>
    <contour>
      <point x="0" y="0" type="move" name="mkmk-th-vow-tone"/>
    </contour>
    <contour>
      <point x="-100" y="690" type="move" name="_mark-th-asc-con"/>
    </contour>
    <contour>
      <point x="-169" y="714" type="curve"/>
      <point x="-209" y="786"/>
      <point x="-267" y="850"/>
      <point x="-370" y="850" type="curve" smooth="yes"/>
      <point x="-430" y="850"/>
      <point x="-462" y="824"/>
      <point x="-472" y="786" type="curve"/>
      <point x="-386" y="784"/>
      <point x="-283" y="767"/>
    </contour>
    <contour>
      <point x="-180" y="950" type="line"/>
      <point x="-110" y="920" type="line"/>
      <point x="-110" y="660" type="line"/>
      <point x="-296" y="750"/>
      <point x="-439" y="760"/>
      <point x="-560" y="760" type="curve"/>
      <point x="-560" y="822"/>
      <point x="-502" y="920"/>
      <point x="-370" y="920" type="curve" smooth="yes"/>
      <point x="-352" y="920"/>
      <point x="-336" y="917"/>
      <point x="-320" y="913" type="curve"/>
      <point x="-320" y="990" type="line"/>
      <point x="-250" y="960" type="line"/>
      <point x="-250" y="876" type="line"/>
      <point x="-201" y="837"/>
      <point x="-169" y="780"/>
      <point x="-150" y="737" type="curve"/>
      <point x="-163" y="787"/>
      <point x="-180" y="840"/>
      <point x="-180" y="880" type="curve" smooth="yes"/>
    </contour>
  </outline>
</glyph>
<glyph name="uni0E38" format="1">
  <advance width="0"/>
  <unicode hex="0E38"/>
  <outline>
    <contour>
      <point x="-110" y="-40" type="move" name="_th-vowbelow"/>
    </contour>
    <contour>
      <point x="-200" y="-240" type="line"/>
      <point x="-250" y="-240"/>
      <point x="-290" y="-200"/>
      <point x="-290" y="-150" type="curve" smooth="yes"/>
      <point x="-290" y="-100"/>
      <point x="-250" y="-60"/>
      <point x="-200" y="-60" type="curve" smooth="yes"/>
      <point x="-150" y="-60"/>
      <point x="-110" y="-100"/>
      <point x="-110" y="-150" type="curve" smooth="yes"/>
      <point x="-110" y="-330" type="line"/>
      <point x="-200" y="-330" type="line"/>
    </contour>
    <contour>
      <point x="-200" y="-110" type="curve" smooth="yes"/>
      <point x="-222" y="-110"/>
      <point x="-240" y="-128"/>
      <point x="-240" y="-150" type="curve" smooth="yes"/>
      <point x="-240" y="-172"/>
      <point x="-222" y="-190"/>
      <point x="-200" y="-190" type="curve" smooth="yes"/>
      <point x="-178" y="-190"/>
      <point x="-160" y="-172"/>
      <point x="-160" y="-150" type="curve" smooth="yes"/>
      <point x="-160" y="-128"/>
      <point x="-178" y="-110"/>
    </contour>
  </outline>
</glyph>
<glyph name="uni0E3A" format="1">
  <advance width="0"/>
  <unicode hex="0E3A"/>
  <outline>
    <contour>
      <point x="-105" y="-40" type="move" name="_th-vowbelow"/>
    </contour>
    <contour>
      <point x="-80" y="-140" type="curve" smooth="yes"/>
      <point x="-80" y="-179"/>
      <point x="-111" y="-210"/>
      <point x="-150" y="-210" type="curve" smooth="yes"/>
      <point x="-189" y="-210"/>
      <point x="-220" y="-179"/>
      <point x="-220" y="-140" type="curve" smooth="yes"/>
      <point x="-220" y="-101"/>
      <point x="-189" y="-70"/>
      <point x="-150" y="-70" type="curve" smooth="yes"/>
      <point x="-111" y="-70"/>
      <point x="-80" y="-101"/>
    </contour>
  </outline>
</glyph>
<glyph name="uni0E40" format="1">
  <advance width="360"/>
  <unicode hex="0E40"/>
  <outline>
    <contour>
      <point x="220" y="150" type="curve" smooth="yes"/>
      <point x="192" y="150"/>
      <point x="170" y="128"/>
      <point x="170" y="100" type="curve" smooth="yes"/>
      <point x="170" y="72"/>
      <point x="192" y="50"/>
      <point x="220" y="50" type="curve" smooth="yes"/>
      <point x="248" y="50"/>
      <point x="270" y="72"/>
      <point x="270" y="100" type="curve" smooth="yes"/>
      <point x="270" y="128"/>
      <point x="248" y="150"/>
    </contour>
    <contour>
      <point x="110" y="600" type="line"/>
      <point x="210" y="600" type="line"/>
      <point x="210" y="210" type="line"/>
      <point x="220" y="210" type="line" smooth="yes"/>
      <point x="281" y="210"/>
      <point x="330" y="161"/>
      <point x="330" y="100" type="curve" smooth="yes"/>
      <point x="330" y="39"/>
      <point x="281" y="-10"/>
      <point x="220" y="-10" type="curve" smooth="yes"/>
      <point x="159" y="-10"/>
      <point x="110" y="39"/>
      <point x="110" y="100" type="curve" smooth="yes"/>
    </contour>
  </outline>
</glyph>
<glyph name="uni0E43" format="1">
  <advance width="400"/>
  <unicode hex="0E43"/>
  <outline>
    <contour>
      <point x="150" y="500" type="line" smooth="yes"/>
      <point x="150" y="637"/>
      <point x="290" y="693"/>
      <point x="290" y="780" type="curve" smooth="yes"/>
      <point x="290" y="826"/>
      <point x="252" y="860"/>
      <point x="190" y="860" type="curve" smooth="yes"/>
      <point x="167" y="860"/>
      <point x="147" y="855"/>
      <point x="132" y="847" type="curve"/>
      <point x="171" y="838"/>
      <point x="200" y="802"/>
      <point x="200" y="760" type="curve" smooth="yes"/>
      <point x="200" y="710"/>
      <point x="160" y="670"/>
      <point x="110" y="670" type="curve" smooth="yes"/>
      <point x="60" y="670"/>
      <point x="20" y="710"/>
      <point x="20" y="760" type="curve" smooth="yes"/>
      <point x="20" y="845"/>
      <point x="85" y="920"/>
      <point x="190" y="920" type="curve" smooth="yes"/>
      <point x="299" y="920"/>
      <point x="360" y="860"/>
      <point x="360" y="780" type="curve" smooth="yes"/>
      <point x="360" y="668"/>
      <point x="250" y="628"/>
      <point x="250" y="500" type="curve" smooth="yes"/>
      <point x="250" y="210" type="line"/>
      <point x="260" y="210" type="line" smooth="yes"/>
      <point x="321" y="210"/>
      <point x="370" y="161"/>
      <point x="370" y="100" type="curve" smooth="yes"/>
      <point x="370" y="39"/>
      <point x="321" y="-10"/>
      <point x="260" y="-10" type="curve" smooth="yes"/>
      <point x="199" y="-10"/>
      <point x="150" y="39"/>
      <point x="150" y="100" type="curve" smooth="yes"/>
    </contour>
    <contour>
      <point x="110" y="805" type="curve" smooth="yes"/>
      <point x="85" y="805"/>
      <point x="65" y="785"/>
      <point x="65" y="760" type="curve" smooth="yes"/>
      <point x="65" y="735"/>
      <point x="85" y="715"/>
      <point x="110" y="715" type="curve" smooth="yes"/>
      <point x="135" y="715"/>
      <point x="155" y="735"/>
      <point x="155" y="760" type="curve" smooth="yes"/>
      <point x="155" y="785"/>
      <point x="135" y="805"/>
    </contour>
    <contour>
      <point x="260" y="150" type="curve" smooth="yes"/>
      <point x="232" y="150"/>
      <point x="210" y="128"/>
      <point x="210" y="100" type="curve" smooth="yes"/>
      <point x="210" y="72"/>
      <point x="232" y="50"/>
      <point x="260" y="50" type="curve" smooth="yes"/>
      <point x="288" y="50"/>
      <point x="310" y="72"/>
      <point x="310" y="100" type="curve" smooth="yes"/>
      <point x="310" y="128"/>
      <point x="288" y="150"/>
    </contour>
  </outline>
</glyph>
<glyph name="uni0E46" format="1">
  <advance width="600"/>
  <unicode hex="0E46"/>
  <outline>
    <contour>
      <point x="170" y="470" type="curve" smooth="yes"/>
      <point x="220" y="470"/>
      <point x="260" y="430"/>
      <point x="260" y="380" type="curve" smooth="yes"/>
      <point x="260" y="330"/>
      <point x="220" y="290"/>
      <point x="170" y="290" type="curve" smooth="yes"/>
      <point x="72" y="290"/>
      <point x="40" y="385"/>
      <point x="40" y="460" type="curve" smooth="yes"/>
      <point x="40" y="524"/>
      <point x="79" y="620"/>
      <point x="180" y="620" type="curve" smooth="yes"/>
      <point x="240" y="620"/>
      <point x="276" y="580"/>
      <point x="294" y="538" type="curve"/>
      <point x="353" y="620" type="line"/>
      <point x="379" y="620" type="line"/>
      <point x="454" y="600"/>
      <point x="500" y="532"/>
      <point x="500" y="450" type="curve" smooth="yes"/>
      <point x="500" y="-50" type="line" smooth="yes"/>
      <point x="500" y="-167"/>
      <point x="417" y="-240"/>
      <point x="270" y="-240" type="curve"/>
      <point x="270" y="-150" type="line"/>
      <point x="331" y="-150"/>
      <point x="400" y="-128"/>
      <point x="400" y="-50" type="curve" smooth="yes"/>
      <point x="400" y="450" type="line" smooth="yes"/>
      <point x="400" y="488"/>
      <point x="396" y="527"/>
      <point x="370" y="550" type="curve"/>
      <point x="310" y="470" type="line"/>
      <point x="245" y="470" type="line"/>
      <point x="245" y="514"/>
      <point x="224" y="555"/>
      <point x="180" y="555" type="curve" smooth="yes"/>
      <point x="130" y="555"/>
      <point x="105" y="508"/>
      <point x="105" y="460" type="curve" smooth="yes"/>
      <point x="105" y="443" type="line"/>
      <point x="122" y="460"/>
      <point x="145" y="470"/>
    </contour>
    <contour>
      <point x="170" y="420" type="curve" smooth="yes"/>
      <point x="148" y="420"/>
      <point x="130" y="402"/>
      <point x="130" y="380" type="curve" smooth="yes"/>
      <point x="130" y="358"/>
      <point x="148" y="340"/>
      <point x="170" y="340" type="curve" smooth="yes"/>
      <point x="192" y="340"/>
      <point x="210" y="358"/>
      <point x="210" y="380" type="curve" smooth="yes"/>
      <point x="210" y="402"/>
      <point x="192" y="420"/>
    </contour>
  </outline>
</glyph>
<glyph name="uni0E47" format="1">
  <advance width="0"/>
  <unicode hex="0E47"/>
  <outline>
    <contour>
      <point x="-120" y="690" type="move" name="_mark-th-asc-con"/>
    </contour>
    <contour>
      <point x="-180" y="1050" type="curve"/>
      <point x="-110" y="1050" type="line"/>
      <point x="-110" y="978"/>
      <point x="-168" y="910"/>
      <point x="-240" y="910" type="curve" smooth="yes"/>
      <point x="-370" y="910" type="line" smooth="yes"/>
      <point x="-418" y="910"/>
      <point x="-444" y="869"/>
      <point x="-444" y="830" type="curve" smooth="yes"/>
      <point x="-444" y="794"/>
      <point x="-422" y="757"/>
      <point x="-382" y="751" type="curve"/>
      <point x="-350" y="800" type="line"/>
      <point x="-300" y="800" type="line"/>
      <point x="-300" y="772"/>
      <point x="-287" y="735"/>
      <point x="-240" y="735" type="curve" smooth="yes"/>
      <point x="-230" y="735"/>
      <point x="-223" y="736"/>
      <point x="-216" y="739" type="curve"/>
      <point x="-241" y="748"/>
      <point x="-260" y="772"/>
      <point x="-260" y="800" type="curve" smooth="yes"/>
      <point x="-260" y="836"/>
      <point x="-230" y="865"/>
      <point x="-194" y="865" type="curve" smooth="yes"/>
      <point x="-159" y="865"/>
      <point x="-130" y="836"/>
      <point x="-130" y="800" type="curve" smooth="yes"/>
      <point x="-130" y="739"/>
      <point x="-172" y="690"/>
      <point x="-240" y="690" type="curve" smooth="yes"/>
      <point x="-285" y="690"/>
      <point x="-319" y="712"/>
      <point x="-336" y="745" type="curve"/>
      <point x="-370" y="695" type="line"/>
      <point x="-452" y="695"/>
      <point x="-510" y="758"/>
      <point x="-510" y="830" type="curve" smooth="yes"/>
      <point x="-510" y="902"/>
      <point x="-452" y="965"/>
      <point x="-370" y="965" type="curve" smooth="yes"/>
      <point x="-250" y="965" type="line" smooth="yes"/>
      <point x="-206" y="965"/>
      <point x="-180" y="1011"/>
    </contour>
    <contour>
      <point x="-194" y="830" type="curve" smooth="yes"/>
      <point x="-211" y="830"/>
      <point x="-224" y="817"/>
      <point x="-224" y="800" type="curve" smooth="yes"/>
      <point x="-224" y="783"/>
      <point x="-211" y="770"/>
      <point x="-194" y="770" type="curve" smooth="yes"/>
      <point x="-178" y="770"/>
      <point x="-164" y="783"/>
      <point x="-164" y="800" type="curve" smooth="yes"/>
      <point x="-164" y="817"/>
      <point x="-178" y="830"/>
    </contour>
  </outline>
</glyph>
<glyph name="uni0E49" format="1">
  <advance width="0"/>
  <unicode hex="0E49"/>
  <outline>
    <contour>
      <point x="0" y="0" type="move" name="_mkmk-th-vow-tone"/>
    </contour>
    <contour>
      <point x="-30" y="990" type="move" name="_mark-th-asc-con"/>
    </contour>
    <contour>
      <point x="-110" y="990" type="move" name="_mark-th-base-con"/>
    </contour>
    <contour>
      <point x="-250" y="1220" type="curve" smooth="yes"/>
      <point x="-209" y="1220"/>
      <point x="-175" y="1186"/>
      <point x="-175" y="1145" type="curve" smooth="yes"/>
      <point x="-175" y="1081"/>
      <point x="-230" y="1055"/>
      <point x="-230" y="1055" type="curve"/>
      <point x="-147" y="1055"/>
      <point x="-85" y="1106"/>
      <point x="-85" y="1210" type="curve"/>
      <point x="0" y="1210" type="line"/>
      <point x="0" y="1080"/>
      <point x="-70" y="1000"/>
      <point x="-230" y="1000" type="curve" smooth="yes"/>
      <point x="-310" y="1000" type="line" smooth="yes"/>
      <point x="-348" y="1000"/>
      <point x="-360" y="1055"/>
      <point x="-360" y="1055" type="curve"/>
      <point x="-315" y="1055" type="line" smooth="yes"/>
      <point x="-302" y="1055"/>
      <point x="-285" y="1061"/>
      <point x="-270" y="1073" type="curve"/>
      <point x="-301" y="1081"/>
      <point x="-325" y="1110"/>
      <point x="-325" y="1145" type="curve" smooth="yes"/>
      <point x="-325" y="1186"/>
      <point x="-291" y="1220"/>
    </contour>
    <contour>
      <point x="-250" y="1180" type="curve" smooth="yes"/>
      <point x="-269" y="1180"/>
      <point x="-285" y="1164"/>
      <point x="-285" y="1145" type="curve" smooth="yes"/>
      <point x="-285" y="1126"/>
      <point x="-269" y="1110"/>
      <point x="-250" y="1110" type="curve" smooth="yes"/>
      <point x="-231" y="1110"/>
      <point x="-215" y="1126"/>
      <point x="-215" y="1145" type="curve" smooth="yes"/>
      <point x="-215" y="1164"/>
      <point x="-231" y="1180"/>
    </contour>
  </outline>
</glyph>
<glyph name="uni0E4B" format="1">
  <advance width="0"/>
  <unicode hex="0E4B"/>
  <outline>
    <contour>
      <point x="0" y="0" type="move" name="_mkmk-th-vow-tone"/>
    </contour>
    <contour>
      <point x="-30" y="990" type="move" name="_mark-th-asc-con"/>
    </contour>
    <contour>
      <point x="-110" y="990" type="move" name="_mark-th-base-con"/>
    </contour>
    <contour>
      <point x="-200" y="1240" type="line"/>
      <point x="-120" y="1240" type="line"/>
      <point x="-120" y="1145" type="line"/>
      <point x="-20" y="1145" type="line"/>
      <point x="-20" y="1085" type="line"/>
      <point x="-120" y="1085" type="line"/>
      <point x="-120" y="970" type="line"/>
      <point x="-200" y="1012" type="line"/>
      <point x="-200" y="1085" type="line"/>
      <point x="-300" y="1085" type="line"/>
      <point x="-300" y="1145" type="line"/>
      <point x="-200" y="1145" type="line"/>
    </contour>
  </outline>
</glyph>
<glyph name="uni0E4D" format="1">
  <advance width="0"/>
  <unicode hex="0E4D"/>
  <outline>
    <contour>
      <point x="-120" y="690" type="move" name="_mkmk-th-vow-nik"/>
    </contour>
    <contour>
      <point x="-70" y="690" type="move" name="_mark-th-asc-con"/>
    </contour>
    <contour>
      <point x="-190" y="865" type="curve" smooth="yes"/>
      <point x="-226" y="865"/>
      <point x="-250" y="841"/>
      <point x="-250" y="805" type="curve" smooth="yes"/>
      <point x="-250" y="769"/>
      <point x="-226" y="745"/>
      <point x="-190" y="745" type="curve" smooth="yes"/>
      <point x="-154" y="745"/>
      <point x="-130" y="769"/>
      <point x="-130" y="805" type="curve" smooth="yes"/>
      <point x="-130" y="841"/>
      <point x="-154" y="865"/>
    </contour>
    <contour>
      <point x="-190" y="920" type="curve" smooth="yes"/>
      <point x="-123" y="920"/>
      <point x="-65" y="872"/>
      <point x="-65" y="805" type="curve" smooth="yes"/>
      <point x="-65" y="738"/>
      <point x="-123" y="690"/>
      <point x="-190" y="690" type="curve" smooth="yes"/>
      <point x="-257" y="690"/>
      <point x="-315" y="738"/>
      <point x="-315" y="805" type="curve" smooth="yes"/>
      <point x="-315" y="872"/>
      <point x="-257" y="920"/>
    </contour>
  </outline>
</glyph>
<glyph name="uni0E4E" format="1">
  <advance width="0"/>
  <unicode hex="0E4E"/>
  <outline>
    <contour>
      <point x="-290" y="1145" type="curve" smooth="yes"/>
      <point x="-218" y="1145"/>
      <point x="-160" y="1087"/>
      <point x="-160" y="1015" type="curve"/>
      <point x="-220" y="1015" type="line"/>
      <point x="-220" y="1054"/>
      <point x="-251" y="1085"/>
      <point x="-290" y="1085" type="curve" smooth="yes"/>
      <point x="-328" y="1085"/>
      <point x="-360" y="1054"/>
      <point x="-360" y="1015" type="curve" smooth="yes"/>
      <point x="-360" y="987"/>
      <point x="-346" y="965"/>
      <point x="-325" y="952" type="curve"/>
      <point x="-307" y="946"/>
      <point x="-291" y="935"/>
      <point x="-278" y="922" type="curve"/>
      <point x="-320" y="879" type="line"/>
      <point x="-333" y="892"/>
      <point x="-350" y="900"/>
      <point x="-370" y="900" type="curve" smooth="yes"/>
      <point x="-408" y="900"/>
      <point x="-440" y="869"/>
      <point x="-440" y="830" type="curve" smooth="yes"/>
      <point x="-440" y="791"/>
      <point x="-408" y="760"/>
      <point x="-370" y="760" type="curve" smooth="yes"/>
      <point x="-350" y="760"/>
      <point x="-333" y="768"/>
      <point x="-320" y="781" type="curve"/>
      <point x="-278" y="738" type="line"/>
      <point x="-301" y="715"/>
      <point x="-334" y="700"/>
      <point x="-370" y="700" type="curve" smooth="yes"/>
      <point x="-441" y="700"/>
      <point x="-500" y="758"/>
      <point x="-500" y="830" type="curve" smooth="yes"/>
      <point x="-500" y="890"/>
      <point x="-459" y="940"/>
      <point x="-404" y="955" type="curve"/>
      <point x="-414" y="974"/>
      <point x="-420" y="995"/>
      <point x="-420" y="1015" type="curve" smooth="yes"/>
      <point x="-420" y="1087"/>
      <point x="-361" y="1145"/>
    </contour>
  </outline>
</glyph>
<glyph name="uni0E4F" format="1">
  <advance width="800"/>
  <unicode hex="0E4F"/>
  <outline>
    <contour>
      <point x="400" y="395" type="curve" smooth="yes"/>
      <point x="348" y="395"/>
      <point x="305" y="352"/>
      <point x="305" y="300" type="curve" smooth="yes"/>
      <point x="305" y="248"/>
      <point x="348" y="205"/>
      <point x="400" y="205" type="curve" smooth="yes"/>
      <point x="452" y="205"/>
      <point x="495" y="248"/>
      <point x="495" y="300" type="curve" smooth="yes"/>
      <point x="495" y="352"/>
      <point x="452" y="395"/>
    </contour>
    <contour>
      <point x="400" y="460" type="curve" smooth="yes"/>
      <point x="488" y="460"/>
      <point x="560" y="388"/>
      <point x="560" y="300" type="curve" smooth="yes"/>
      <point x="560" y="212"/>
      <point x="488" y="140"/>
      <point x="400" y="140" type="curve" smooth="yes"/>
      <point x="312" y="140"/>
      <point x="240" y="212"/>
      <point x="240" y="300" type="curve" smooth="yes"/>
      <point x="240" y="388"/>
      <point x="312" y="460"/>
    </contour>
    <contour>
      <point x="400" y="550" type="curve" smooth="yes"/>
      <point x="262" y="550"/>
      <point x="150" y="438"/>
      <point x="150" y="300" type="curve" smooth="yes"/>
      <point x="150" y="162"/>
      <point x="262" y="50"/>
      <point x="400" y="50" type="curve" smooth="yes"/>
      <point x="538" y="50"/>
      <point x="650" y="162"/>
      <point x="650" y="300" type="curve" smooth="yes"/>
      <point x="650" y="438"/>
      <point x="538" y="550"/>
    </contour>
    <contour>
      <point x="400" y="620" type="curve" smooth="yes"/>
      <point x="577" y="620"/>
      <point x="720" y="477"/>
      <point x="720" y="300" type="curve" smooth="yes"/>
      <point x="720" y="123"/>
      <point x="577" y="-20"/>
      <point x="400" y="-20" type="curve" smooth="yes"/>
      <point x="223" y="-20"/>
      <point x="80" y="123"/>
      <point x="80" y="300" type="curve" smooth="yes"/>
      <point x="80" y="477"/>
      <point x="223" y="620"/>
    </contour>
  </outline>
</glyph>
<glyph name="uni0E51" format="1">
  <advance width="800"/>
  <unicode hex="0E51"/>
  <outline>
    <contour>
      <point x="390" y="420" type="curve" smooth="yes"/>
      <point x="456" y="420"/>
      <point x="510" y="366"/>
      <point x="510" y="300" type="curve" smooth="yes"/>
      <point x="510" y="184"/>
      <point x="430" y="90"/>
      <point x="300" y="90" type="curve" smooth="yes"/>
      <point x="170" y="90"/>
      <point x="80" y="184"/>
      <point x="80" y="300" type="curve" smooth="yes"/>
      <point x="80" y="487"/>
      <point x="225" y="620"/>
      <point x="400" y="620" type="curve" smooth="yes"/>
      <point x="575" y="620"/>
      <point x="720" y="487"/>
      <point x="720" y="300" type="curve" smooth="yes"/>
      <point x="720" y="94"/>
      <point x="577" y="-60"/>
      <point x="400" y="-60" type="curve"/>
      <point x="400" y="20" type="line"/>
      <point x="510" y="20"/>
      <point x="620" y="137"/>
      <point x="620" y="300" type="curve" smooth="yes"/>
      <point x="620" y="427"/>
      <point x="537" y="530"/>
      <point x="400" y="530" type="curve" smooth="yes"/>
      <point x="263" y="530"/>
      <point x="180" y="427"/>
      <point x="180" y="300" type="curve" smooth="yes"/>
      <point x="180" y="234"/>
      <point x="214" y="170"/>
      <point x="300" y="170" type="curve" smooth="yes"/>
      <point x="324" y="170"/>
      <point x="344" y="175"/>
      <point x="360" y="184" type="curve"/>
      <point x="308" y="197"/>
      <point x="270" y="244"/>
      <point x="270" y="300" type="curve" smooth="yes"/>
      <point x="270" y="366"/>
      <point x="324" y="420"/>
    </contour>
    <contour>
      <point x="390" y="355" type="curve" smooth="yes"/>
      <point x="360" y="355"/>
      <point x="335" y="330"/>
      <point x="335" y="300" type="curve" smooth="yes"/>
      <point x="335" y="270"/>
      <point x="360" y="245"/>
      <point x="390" y="245" type="curve" smooth="yes"/>
      <point x="420" y="245"/>
      <point x="445" y="270"/>
      <point x="445" y="300" type="curve" smooth="yes"/>
      <point x="445" y="330"/>
      <point x="420" y="355"/>
    </contour>
  </outline>
</glyph>
<glyph name="uni0E59" format="1">
  <advance width="960"/>
  <unicode hex="0E59"/>
  <outline>
    <contour>
      <point x="820" y="550" type="curve" smooth="yes"/>
      <point x="820" y="810" type="line"/>
      <point x="910" y="810" type="line"/>
      <point x="910" y="550" type="line" smooth="yes"/>
      <point x="910" y="363"/>
      <point x="842" y="300"/>
      <point x="660" y="300" type="curve"/>
      <point x="660" y="360" type="line" smooth="yes"/>
      <point x="660" y="459"/>
      <point x="642" y="508"/>
      <point x="590" y="530" type="curve"/>
      <point x="513" y="390" type="line"/>
      <point x="680" y="0" type="line"/>
      <point x="580" y="0" type="line"/>
      <point x="400" y="420" type="line" smooth="yes"/>
      <point x="371" y="488"/>
      <point x="352" y="530"/>
      <point x="300" y="530" type="curve" smooth="yes"/>
      <point x="241" y="530"/>
      <point x="180" y="444"/>
      <point x="180" y="300" type="curve" smooth="yes"/>
      <point x="180" y="253"/>
      <point x="184" y="212"/>
      <point x="192" y="177" type="curve"/>
      <point x="214" y="226"/>
      <point x="263" y="260"/>
      <point x="320" y="260" type="curve" smooth="yes"/>
      <point x="397" y="260"/>
      <point x="460" y="197"/>
      <point x="460" y="120" type="curve" smooth="yes"/>
      <point x="460" y="43"/>
      <point x="397" y="-20"/>
      <point x="320" y="-20" type="curve" smooth="yes"/>
      <point x="168" y="-20"/>
      <point x="80" y="115"/>
      <point x="80" y="300" type="curve" smooth="yes"/>
      <point x="80" y="485"/>
      <point x="180" y="620"/>
      <point x="300" y="620" type="curve" smooth="yes"/>
      <point x="378" y="620"/>
      <point x="436" y="571"/>
      <point x="474" y="489" type="curve"/>
      <point x="550" y="620" type="line"/>
      <point x="590" y="620" type="line"/>
      <point x="697" y="595"/>
      <point x="737" y="514"/>
      <point x="744" y="382" type="curve"/>
      <point x="811" y="405"/>
      <point x="820" y="464"/>
    </contour>
    <contour>
      <point x="320" y="190" type="curve" smooth="yes"/>
      <point x="281" y="190"/>
      <point x="250" y="159"/>
      <point x="250" y="120" type="curve" smooth="yes"/>
      <point x="250" y="81"/>
      <point x="281" y="50"/>
      <point x="320" y="50" type="curve" smooth="yes"/>
      <point x="359" y="50"/>
      <point x="390" y="81"/>
      <point x="390" y="120" type="curve" smooth="yes"/>
      <point x="390" y="159"/>
      <point x="359" y="190"/>
    </contour>
  </outline>
</glyph>
<glyph name="uni0E5B" format="1">
  <advance width="1300"/>
  <unicode hex="0E5B"/>
  <outline>
    <contour>
      <point x="320" y="430" type="curve" smooth="yes"/>
      <point x="370" y="430"/>
      <point x="410" y="390"/>
      <point x="410" y="340" type="curve" smooth="yes"/>
      <point x="410" y="290"/>
      <point x="370" y="250"/>
      <point x="320" y="250" type="curve" smooth="yes"/>
      <point x="314" y="250"/>
      <point x="308" y="251"/>
      <point x="303" y="252" type="curve"/>
      <point x="318" y="224"/>
      <point x="343" y="210"/>
      <point x="380" y="210" type="curve" smooth="yes"/>
      <point x="443" y="210"/>
      <point x="490" y="258"/>
      <point x="490" y="340" type="curve" smooth="yes"/>
      <point x="490" y="441"/>
      <point x="453" y="555"/>
      <point x="330" y="555" type="curve" smooth="yes"/>
      <point x="217" y="555"/>
      <point x="150" y="464"/>
      <point x="150" y="300" type="curve" smooth="yes"/>
      <point x="150" y="162"/>
      <point x="242" y="45"/>
      <point x="380" y="45" type="curve" smooth="yes"/>
      <point x="606" y="45"/>
      <point x="665" y="307"/>
      <point x="665" y="580" type="curve"/>
      <point x="725" y="580" type="line"/>
      <point x="837" y="178" type="line"/>
      <point x="915" y="520" type="line"/>
      <point x="925" y="520" type="line"/>
      <point x="975" y="520" type="line"/>
      <point x="975" y="419"/>
      <point x="996" y="330"/>
      <point x="1080" y="330" type="curve" smooth="yes"/>
      <point x="1240" y="330" type="line"/>
      <point x="1240" y="270" type="line"/>
      <point x="1080" y="270" type="line" smooth="yes"/>
      <point x="999" y="270"/>
      <point x="959" y="309"/>
      <point x="941" y="370" type="curve"/>
      <point x="870" y="60" type="line"/>
      <point x="810" y="60" type="line"/>
      <point x="716" y="398" type="line"/>
      <point x="691" y="179"/>
      <point x="608" y="-20"/>
      <point x="380" y="-20" type="curve" smooth="yes"/>
      <point x="203" y="-20"/>
      <point x="80" y="123"/>
      <point x="80" y="300" type="curve" smooth="yes"/>
      <point x="80" y="492"/>
      <point x="178" y="620"/>
      <point x="330" y="620" type="curve" smooth="yes"/>
      <point x="486" y="620"/>
      <point x="560" y="482"/>
      <point x="560" y="340" type="curve" smooth="yes"/>
      <point x="560" y="233"/>
      <point x="492" y="150"/>
      <point x="380" y="150" type="curve" smooth="yes"/>
      <point x="284" y="150"/>
      <point x="225" y="227"/>
      <point x="225" y="320" type="curve" smooth="yes"/>
      <point x="225" y="385"/>
      <point x="270" y="430"/>
    </contour>
    <contour>
      <point x="320" y="380" type="curve" smooth="yes"/>
      <point x="298" y="380"/>
      <point x="280" y="362"/>
      <point x="280" y="340" type="curve" smooth="yes"/>
      <point x="280" y="318"/>
      <point x="298" y="300"/>
      <point x="320" y="300" type="curve" smooth="yes"/>
      <point x="342" y="300"/>
      <point x="360" y="318"/>
      <point x="360" y="340" type="curve" smooth="yes"/>
      <point x="360" y="362"/>
      <point x="342" y="380"/>
    </contour>
  </outline>
</glyph>
<glyph name="emdash" format="1">
  <advance width="990"/>
  <unicode hex="2014"/>
  <outline>
    <contour>
      <point x="100" y="355" type="line"/>
      <point x="900" y="355" type="line"/>
      <point x="900" y="285" type="line"/>
      <point x="100" y="285" type="line"/>
    </contour>
  </outline>
</glyph>
<glyph name="quotedblleft" format="1">
  <advance width="480"/>
  <unicode hex="201C"/>
  <outline>
    <contour>
      <point x="135" y="520" type="curve" smooth="yes"/>
      <point x="84" y="520"/>
      <point x="60" y="559"/>
      <point x="60" y="610" type="curve" smooth="yes"/>
      <point x="60" y="688"/>
      <point x="106" y="767"/>
      <point x="165" y="810" type="curve"/>
      <point x="220" y="810" type="line"/>
      <point x="170" y="767"/>
      <point x="135" y="715"/>
      <point x="135" y="660" type="curve"/>
      <point x="174" y="660"/>
      <point x="200" y="629"/>
      <point x="200" y="590" type="curve" smooth="yes"/>
      <point x="200" y="551"/>
      <point x="174" y="520"/>
    </contour>
    <contour>
      <point x="345" y="520" type="curve" smooth="yes"/>
      <point x="294" y="520"/>
      <point x="270" y="559"/>
      <point x="270" y="610" type="curve" smooth="yes"/>
      <point x="270" y="688"/>
      <point x="316" y="767"/>
      <point x="375" y="810" type="curve"/>
      <point x="430" y="810" type="line"/>
      <point x="380" y="767"/>
      <point x="345" y="715"/>
      <point x="345" y="660" type="curve"/>
      <point x="384" y="660"/>
      <point x="410" y="629"/>
      <point x="410" y="590" type="curve" smooth="yes"/>
      <point x="410" y="551"/>
      <point x="384" y="520"/>
    </contour>
  </outline>
</glyph>
<glyph name="bullet" format="1">
  <advance width="360"/>
  <unicode hex="2022"/>
  <outline>
    <contour>
      <point x="270" y="320" type="curve" smooth="yes"/>
      <point x="270" y="270"/>
      <point x="230" y="230"/>
      <point x="180" y="230" type="curve" smooth="yes"/>
      <point x="130" y="230"/>
      <point x="90" y="270"/>
      <point x="90" y="320" type="curve" smooth="yes"/>
      <point x="90" y="370"/>
      <point x="130" y="410"/>
      <point x="180" y="410" type="curve" smooth="yes"/>
      <point x="230" y="410"/>
      <point x="270" y="370"/>
    </contour>
  </outline>
</glyph>
<glyph name="uni0E10.descless" format="1">
  <advance width="610"/>
  <unicode hex="EE10"/>
  <outline>
    <contour>
      <point x="480" y="690" type="move" name="mark-th-base-con"/>
    </contour>
    <contour>
      <point x="80" y="400" type="curve"/>
      <point x="80" y="535"/>
      <point x="190" y="620"/>
      <point x="310" y="620" type="curve" smooth="yes"/>
      <point x="394" y="620"/>
      <point x="435" y="590"/>
      <point x="470" y="560" type="curve"/>
      <point x="478" y="574"/>
      <point x="509" y="610"/>
      <point x="540" y="610" type="curve"/>
      <point x="540" y="540" type="line"/>
      <point x="509" y="540"/>
      <point x="482" y="505"/>
      <point x="470" y="485" type="curve"/>
      <point x="432" y="523"/>
      <point x="384" y="550"/>
      <point x="310" y="550" type="curve" smooth="yes"/>
      <point x="232" y="550"/>
      <point x="183" y="497"/>
      <point x="180" y="445" type="curve"/>
      <point x="370" y="445"/>
      <point x="480" y="436"/>
      <point x="480" y="320" type="curve" smooth="yes"/>
      <point x="480" y="60" type="line" smooth="yes"/>
      <point x="480" y="15"/>
      <point x="404" y="-10"/>
      <point x="360" y="-10" type="curve"/>
      <point x="350" y="84"/>
      <point x="326" y="154"/>
      <point x="295" y="200" type="curve"/>
      <point x="283" y="159"/>
      <point x="245" y="130"/>
      <point x="200" y="130" type="curve" smooth="yes"/>
      <point x="145" y="130"/>
      <point x="100" y="175"/>
      <point x="100" y="230" type="curve" smooth="yes"/>
      <point x="100" y="285"/>
      <point x="145" y="330"/>
      <point x="200" y="330" type="curve" smooth="yes"/>
      <point x="285" y="330"/>
      <point x="350" y="231"/>
      <point x="380" y="109" type="curve"/>
      <point x="380" y="320" type="line" smooth="yes"/>
      <point x="380" y="396"/>
      <point x="317" y="400"/>
    </contour>
    <contour>
      <point x="200" y="275" type="curve" smooth="yes"/>
      <point x="175" y="275"/>
      <point x="155" y="255"/>
      <point x="155" y="230" type="curve" smooth="yes"/>
      <point x="155" y="205"/>
      <point x="175" y="185"/>
      <point x="200" y="185" type="curve" smooth="yes"/>
      <point x="225" y="185"/>
      <point x="245" y="205"/>
      <point x="245" y="230" type="curve" smooth="yes"/>
      <point x="245" y="255"/>
      <point x="225" y="275"/>
    </contour>
  </outline>
</glyph>
<glyph name="uni0E48.nik" format="1">
  <advance width="0"/>
  <unicode hex="EE48"/>
  <outline>
    <component base="uni0E48" xOffset="-20"/>
    <component base="uni0E4D"/>
    <contour>
      <point x="-70" y="690" type="move" name="_mark-th-asc-con"/>
    </contour>
  </outline>
</glyph>
<glyph name="uni0E49.nik" format="1">
  <advance width="0"/>
  <unicode hex="EE49"/>
  <outline>
    <component base="uni0E49"/>
    <component base="uni0E4D"/>
    <contour>
      <point x="-70" y="690" type="move" name="_mark-th-asc-con"/>
    </contour>
  </outline>
</glyph>
<glyph name="uni0E4A.nik" format="1">
  <advance width="0"/>
  <unicode hex="EE4A"/>
  <outline>
    <component base="uni0E4A"/>
    <component base="uni0E4D"/>
    <contour>
      <point x="-70" y="690" type="move" name="_mark-th-asc-con"/>
    </contour>
  </outline>
</glyph>
